<svg width="59" height="26" viewBox="0 0 59 26" fill="none" xmlns="http://www.w3.org/2000/svg">
<path fill-rule="evenodd" clip-rule="evenodd" d="M39.9364 5.17786C43.6367 6.36514 44.737 6.47991 46.3833 5.17786C49.5692 2.67667 51.1324 5.05518 54.6942 7.11312L52.945 9.1592C51.2147 8.81508 49.4245 8.93055 47.7528 9.49407C46.0811 10.0576 44.5863 11.0495 43.4175 12.3709C42.2486 13.6923 41.4466 15.297 41.0914 17.025C40.7361 18.753 40.84 20.5439 41.3928 22.2192L37.831 23.4619L36.1688 24.0595L39.1053 25.9987L43.7278 24.384L45.2554 23.8498L44.5074 22.4171C43.8472 21.147 43.5755 19.7106 43.7262 18.2871C43.877 16.8636 44.4435 15.5159 45.3551 14.4123C46.2668 13.3086 47.4831 12.4978 48.8526 12.0809C50.222 11.664 51.6838 11.6595 53.0558 12.068L53.9225 12.3292L54.5122 11.6406L57.9118 7.68302L59.0001 6.40867L57.5279 5.54196L50.4557 1.4419C49.0151 0.606853 48.9122 0.606853 47.3767 1.52897C45.7501 2.51045 44.7647 4.1766 41.0445 2.61335C31.855 -1.37985 27.8658 -0.065936 21.2764 2.09886C19.9823 2.52628 18.5734 2.98536 16.8162 3.49589C14.1092 4.28741 10.3178 4.3072 6.95784 3.53547C4.15192 2.89434 1.718 1.72289 0.590088 0.00134277C1.25233 1.79028 2.39241 3.36339 3.88633 4.54959C5.38024 5.73579 7.1708 6.48967 9.06328 6.72924C12.0948 7.06959 15.1896 6.88358 17.58 6.19496C19.163 5.73984 20.7105 5.22931 22.1431 4.75836C28.0993 2.79936 31.7086 1.61208 39.9522 5.18578M34.2296 15.0402C26.627 12.3728 24.9253 15.8119 18.6169 16.6232C15.7318 16.9913 10.4563 16.5203 9.1543 14.5336C12.3204 21.9066 23.7736 17.6047 27.6006 17.0308C29.3578 16.7696 31.1624 16.9121 33.6715 17.8224C33.7126 16.8717 33.9008 15.9331 34.2296 15.0402ZM22.7724 11.3992C28.313 9.57078 31.8431 8.41517 38.9668 11.1696C39.7492 10.3751 40.669 9.72886 41.6817 9.26209C32.4882 5.26889 28.495 6.58281 21.8938 8.74761C20.5996 9.17503 19.1947 9.63806 17.4257 10.1446C14.7187 10.9362 10.9313 10.9559 7.56731 10.1842C4.797 9.55495 2.37496 8.60118 1.23517 6.91524C2.71135 10.5285 6.03177 12.8754 9.89833 13.3899C12.6791 13.7188 15.4967 13.531 18.2093 12.8358C19.7883 12.3807 21.3437 11.8741 22.7724 11.3992Z" fill="#FF9900"/>
</svg>
