<?xml version="1.0" encoding="UTF-8"?>
<svg width="70px" height="70px" viewBox="0 0 70 70" version="1.1" xmlns="http://www.w3.org/2000/svg" xmlns:xlink="http://www.w3.org/1999/xlink">
    <title>Algorithm Sharing</title>
    <g id="Page-1" stroke="none" stroke-width="1" fill="none" fill-rule="evenodd">
        <g id="800x800" transform="translate(-47.000000, -81.000000)" fill-rule="nonzero">
            <g id="Algorithm-Sharing" transform="translate(47.000000, 81.000000)">
                <rect id="Rectangle" fill="#213269" x="0" y="0" width="70" height="70" rx="5"></rect>
                <g id="Asset-1" transform="translate(10.000000, 12.000000)" fill="#FFFFFF">
                    <path d="M44.7697368,10.3947368 C42.1027829,10.3947368 39.9407895,12.5567302 39.9407895,15.2236842 C39.9406061,15.4195306 39.9537947,15.6151609 39.9802632,15.8092105 L35.1315789,17.3421053 C33.3178024,13.9625083 29.7960694,11.8504791 25.9605263,11.8421053 C25.562521,11.8428634 25.1649048,11.8670279 24.7697368,11.9144737 L24.4539474,10 C26.7581071,9.148589 28.055934,6.7030841 27.4695554,4.31766742 C26.8831769,1.93225073 24.5994709,0.367151412 22.163176,0.681029897 C19.726881,0.994908382 17.9144412,3.08773201 17.9518223,5.54387843 C17.9892034,8.00002485 19.8644921,10.0367234 22.3092105,10.2763158 L22.6578947,12.3815789 C19.9802276,13.2830319 17.7807024,15.2286744 16.5592105,17.7763158 L12.6118421,16.5855263 C12.6118421,16.5 12.6118421,16.4144737 12.6118421,16.3355263 C12.6126648,13.2673642 10.2914535,10.696327 7.23916763,10.3846049 C4.1868818,10.0728829 1.39386518,12.1216172 0.774452784,15.1266043 C0.155040392,18.1315915 1.91020659,21.1178342 4.83695957,22.0385603 C7.76371255,22.9592863 10.9124389,21.5157572 12.125,18.6973684 L15.8157895,19.8157895 C15.6253371,20.617703 15.5282014,21.4389408 15.5263158,22.2631579 C15.5320721,24.8017178 16.4683461,27.2500745 18.1578947,29.1447368 L13.4276316,35.2631579 C12.5795228,34.8260211 11.6383346,34.6003165 10.6842105,34.6052632 C7.85032095,34.6078547 5.40465733,36.5928687 4.819154,39.3656151 C4.23365067,42.1383615 5.66797932,44.942689 8.25888239,46.0907997 C10.8497855,47.2389104 13.8907019,46.4177048 15.5514416,44.1214294 C17.2121813,41.8251541 17.0398466,38.6800226 15.1381579,36.5789474 L19.7434211,30.6578947 C23.4890795,33.4543211 28.6401301,33.4085699 32.3355263,30.5460526 L33.8815789,32.1447368 C32.0376813,34.6225557 32.3866725,38.0974202 34.686483,40.1590739 C36.9862936,42.2207276 40.4784977,42.1892834 42.7408117,40.0865517 C45.0031256,37.9838201 45.289489,34.5032348 43.4012728,32.0590203 C41.5130566,29.6148059 38.0729521,29.0130094 35.4671053,30.6710526 L33.9013158,29.0526316 C35.5082198,27.1636245 36.3877838,24.7629048 36.3815789,22.2828947 C36.380335,21.2898602 36.2385789,20.3019974 35.9605263,19.3486842 L40.7171053,17.8421053 C41.9718513,19.7864132 44.4295042,20.5673154 46.5763991,19.7038553 C48.723294,18.8403952 49.9558822,16.5753142 49.5150145,14.3036723 C49.0741469,12.0320305 47.0837627,10.3924461 44.7697368,10.3947368 Z M20.1118413,5.48684211 C20.1108138,4.18747019 21.044997,3.07586854 22.3251466,2.85319072 C23.6052962,2.6305129 24.8599691,3.36137022 25.2977682,4.58476731 C25.7355672,5.80816439 25.2294624,7.16912523 24.0986842,7.80921053 L23.9934211,7.15131579 C23.8971345,6.56269653 23.3419087,6.16358197 22.7532895,6.25986846 C22.1646702,6.35615494 21.7655556,6.91138074 21.8618421,7.5 L21.9407895,8.00657895 C20.850722,7.64230044 20.1147111,6.62300472 20.1118413,5.47368421 L20.1118413,5.48684211 Z M6.63815789,20.1776316 C4.58134453,20.1761243 2.89449872,18.5472995 2.82102991,16.4917981 C2.7475611,14.4362967 4.31381435,12.691198 6.36527154,12.5428507 C8.41672872,12.3945034 10.2177609,13.8961032 10.4407895,15.9407895 L9.46710526,15.6447368 C8.89483653,15.4630642 8.2836463,15.7797049 8.10197368,16.3519737 C7.92030107,16.9242424 8.23694179,17.5354326 8.80921053,17.7171053 L10.0197368,18.0789474 C9.37005843,19.3648464 8.05254202,20.1762126 6.61184211,20.1776316 L6.63815789,20.1776316 Z M10.6842105,44.4013158 C8.57317474,44.4013158 6.86184211,42.6899832 6.86184211,40.5789474 C6.86184211,38.4679116 8.57317474,36.7565789 10.6842105,36.7565789 C12.7952463,36.7565789 14.5065789,38.4679116 14.5065789,40.5789474 C14.5029574,42.6884812 12.7937444,44.3976943 10.6842105,44.4013158 L10.6842105,44.4013158 Z M42.4934211,35.6973684 C42.4934211,37.8084042 40.7820884,39.5197368 38.6710526,39.5197368 C36.5600168,39.5197368 34.8486842,37.8084042 34.8486842,35.6973684 C34.8486842,33.5863326 36.5600168,31.875 38.6710526,31.875 C40.7820884,31.875 42.4934211,33.5863326 42.4934211,35.6973684 Z M32.3815789,27.4671053 L30.7039474,25.7368421 C30.4359982,25.4594912 30.040438,25.3461575 29.6662704,25.4395329 C29.2921029,25.5329082 28.9961729,25.8188066 28.8899546,26.1895329 C28.7837363,26.5602592 28.8833666,26.9594912 29.1513158,27.2368421 L30.8157895,28.9473684 C27.9113747,31.0817922 23.9570464,31.0817922 21.0526316,28.9473684 L22.6052632,26.9407895 C22.8403063,26.6352334 22.8944829,26.2274939 22.7473851,25.8711625 C22.6002874,25.5148311 22.2742629,25.264043 21.892122,25.2132677 C21.5099811,25.1624925 21.12978,25.3194439 20.8947368,25.625 L19.4868421,27.4473684 C16.7966474,24.0606076 17.176025,19.171753 20.3564962,16.2405589 C23.5369674,13.3093647 28.440479,13.3293893 31.5969042,16.2864615 C34.7533294,19.2435337 35.0927656,24.1353238 32.375,27.5 L32.3815789,27.4671053 Z M44.7697368,17.894745 C43.2945552,17.894745 42.0986842,16.6988658 42.0986842,15.2236842 C42.0986842,13.7485026 43.2945552,12.5526316 44.7697368,12.5526316 C46.2449185,12.5526316 47.4407976,13.7485026 47.4407976,15.2236842 C47.4425421,15.9326273 47.1616913,16.6130387 46.6603913,17.1143387 C46.1590914,17.6156387 45.4786799,17.8964895 44.7697368,17.894745 Z" id="Shape"></path>
                </g>
            </g>
        </g>
    </g>
</svg>