<?xml version="1.0" encoding="UTF-8"?>
<svg width="70px" height="70px" viewBox="0 0 70 70" version="1.1" xmlns="http://www.w3.org/2000/svg" xmlns:xlink="http://www.w3.org/1999/xlink">
    <title>alpha approved x10</title>
    <defs>
        <rect id="path-1" x="0" y="0" width="70" height="70" rx="5"></rect>
    </defs>
    <g id="Page-1" stroke="none" stroke-width="1" fill="none" fill-rule="evenodd">
        <g id="800x800" transform="translate(-719.000000, -836.000000)">
            <g id="Group-2-Copy-3" transform="translate(719.000000, 836.000000)">
                <mask id="mask-2" fill="white">
                    <use xlink:href="#path-1"></use>
                </mask>
                <use id="Rectangle-Copy-25" fill="#323446" fill-rule="nonzero" xlink:href="#path-1"></use>
                <path d="M10.3068521,15.1371317 C9.99736274,15.1375838 9.7004776,15.0080328 9.48197138,14.7771793 L5.35515363,10.4308871 C5.05241197,10.1219988 4.93127941,9.66520071 5.03823956,9.23578539 C5.14519971,8.80637007 5.46363866,8.47103778 5.87135808,8.35846952 C6.2790775,8.24590126 6.71274708,8.37358205 7.0059497,8.69251545 L10.3068521,12.1696219 L17.7345723,4.34622321 C18.1924888,3.87920482 18.9214238,3.88542801 19.3720926,4.36020333 C19.8227614,4.83497865 19.8285175,5.60274569 19.3850235,6.08495804 L11.1324226,14.7775425 C10.9135398,15.0082031 10.616478,15.1375923 10.3068521,15.1371317 L10.3068521,15.1371317 Z" id="Path" fill="#FFFFFF" mask="url(#mask-2)"></path>
                <rect id="Rectangle-Copy-25" fill="#FD9827" fill-rule="nonzero" mask="url(#mask-2)" x="46" y="-51" width="70" height="70" rx="5"></rect>
                <g id="Asset-4-Copy" mask="url(#mask-2)" fill="#FFFFFF">
                    <g transform="translate(15.000000, 15.000000)">
                        <path d="M19.9533981,39.9067961 C8.9334406,39.9067961 -1.42108547e-14,30.9733555 -1.42108547e-14,19.9533981 C-1.42108547e-14,8.9334406 8.9334406,-1.42108547e-14 19.9533981,-1.42108547e-14 C30.9733555,-1.42108547e-14 39.9067961,8.9334406 39.9067961,19.9533981 C39.893956,30.9680326 30.9680326,39.893956 19.9533981,39.9067961 Z M19.9533981,1.94174757 C10.0058382,1.94174757 1.94174757,10.0058382 1.94174757,19.9533981 C1.94174757,29.9009579 10.0058382,37.9650485 19.9533981,37.9650485 C29.9009579,37.9650485 37.9650485,29.9009579 37.9650485,19.9533981 C37.9522116,10.0111603 29.8956358,1.95458456 19.9533981,1.94174757 Z" id="Shape" fill-rule="nonzero"></path>
                        <path d="M34.0427184,15.4872916 C31.3592233,15.4872916 30.0699029,17.592233 28.9320388,19.4446602 C27.7941748,21.2970874 26.9669903,22.4776699 25.4757282,22.4776699 C23.984466,22.4776699 23.176699,21.3126214 22.0194175,19.4446602 C20.8621359,17.576699 19.592233,15.4872916 16.9087379,15.4872916 C14.2252427,15.4872916 12.9320388,17.592233 11.7980583,19.4446602 C10.6640777,21.2970874 9.83300971,22.4776699 8.34174757,22.4776699 C6.85048544,22.4776699 6.04271845,21.3126214 4.88543689,19.4446602 C4.45220367,18.6969515 3.96139948,17.9841169 3.41747573,17.3126214 C3.28006213,18.1861607 3.21124348,19.0691169 3.21164869,19.9533981 C3.21164869,20.1203883 3.21164869,20.2834951 3.21164869,20.4504854 L3.21164869,20.4504854 C4.34563107,22.3067961 5.63495146,24.407767 8.3223301,24.407767 C11.0097087,24.407767 12.2951456,22.3067961 13.4330097,20.4504854 C14.5708738,18.5941748 15.3980583,17.4174757 16.8893204,17.4174757 C18.3805825,17.4174757 19.1883495,18.5631068 20.3456311,20.4504854 C21.5029126,22.3378641 22.7883495,24.4194175 25.4757282,24.4194175 C28.1631068,24.4194175 29.4524272,22.3184466 30.5864078,20.4621359 C31.7203883,18.6058252 32.5553398,17.4291262 34.0427184,17.4291262 C35.161165,17.4291262 35.8951456,18.0699029 36.6757282,19.184466 C36.6285582,18.1372706 36.4816145,17.0969612 36.2368932,16.0776699 C35.5722017,15.6864342 34.8139875,15.4824544 34.0427184,15.4872916 Z" id="Path" fill-rule="evenodd"></path>
                    </g>
                </g>
                <text id="x10" mask="url(#mask-2)" font-family="HelveticaNeue-Bold, Helvetica Neue" font-size="11" font-weight="bold" letter-spacing="0.1652384" fill="#FFFFFF">
                    <tspan x="49" y="14">x10</tspan>
                </text>
            </g>
        </g>
    </g>
</svg>