<svg xmlns="http://www.w3.org/2000/svg" width="78.891" height="80.586" viewBox="0 0 78.891 80.586"><g transform="translate(-1370.75 -788.5)"><path d="M0,263.428a1.51,1.51,0,1,1,1.51,1.51A1.51,1.51,0,0,1,0,263.428" transform="translate(1446.621 604.148)" fill="#cdd4dd"/><path d="M37.417,263.428a1.51,1.51,0,1,1,1.51,1.51,1.51,1.51,0,0,1-1.51-1.51" transform="translate(1398.124 604.148)" fill="#cdd4dd"/><path d="M74.834,263.428a1.51,1.51,0,1,1,1.51,1.51,1.51,1.51,0,0,1-1.51-1.51" transform="translate(1349.626 604.148)" fill="#cdd4dd"/><path d="M112.251,263.428a1.51,1.51,0,1,1,1.51,1.51,1.51,1.51,0,0,1-1.51-1.51" transform="translate(1301.128 604.148)" fill="#cdd4dd"/><path d="M149.668,263.428a1.51,1.51,0,1,1,1.51,1.51,1.51,1.51,0,0,1-1.51-1.51" transform="translate(1252.63 604.148)" fill="#cdd4dd"/><path d="M187.085,263.428a1.51,1.51,0,1,1,1.51,1.51,1.51,1.51,0,0,1-1.51-1.51" transform="translate(1204.132 604.148)" fill="#cdd4dd"/><path d="M0,226.011a1.51,1.51,0,1,1,1.51,1.51A1.51,1.51,0,0,1,0,226.011" transform="translate(1446.621 630.484)" fill="#cdd4dd"/><path d="M37.417,226.011a1.51,1.51,0,1,1,1.51,1.51,1.51,1.51,0,0,1-1.51-1.51" transform="translate(1398.124 630.484)" fill="#cdd4dd"/><path d="M74.834,226.011a1.51,1.51,0,1,1,1.51,1.51,1.51,1.51,0,0,1-1.51-1.51" transform="translate(1349.626 630.484)" fill="#cdd4dd"/><path d="M112.251,226.011a1.51,1.51,0,1,1,1.51,1.51,1.51,1.51,0,0,1-1.51-1.51" transform="translate(1301.128 630.484)" fill="#cdd4dd"/><path d="M149.668,226.011a1.51,1.51,0,1,1,1.51,1.51,1.51,1.51,0,0,1-1.51-1.51" transform="translate(1252.63 630.484)" fill="#cdd4dd"/><path d="M187.085,226.011a1.51,1.51,0,1,1,1.51,1.51,1.51,1.51,0,0,1-1.51-1.51" transform="translate(1204.132 630.484)" fill="#cdd4dd"/><path d="M220.571,263.428a1.51,1.51,0,1,1,1.51,1.51,1.51,1.51,0,0,1-1.51-1.51" transform="translate(1160.729 604.148)" fill="#cdd4dd"/><path d="M256.2,263.428a1.51,1.51,0,1,1,1.51,1.51,1.51,1.51,0,0,1-1.51-1.51" transform="translate(1114.555 604.148)" fill="#cdd4dd"/><path d="M220.571,226.011a1.51,1.51,0,1,1,1.51,1.51,1.51,1.51,0,0,1-1.51-1.51" transform="translate(1160.729 630.484)" fill="#cdd4dd"/><path d="M0,188.594a1.51,1.51,0,1,1,1.51,1.51A1.51,1.51,0,0,1,0,188.594" transform="translate(1446.621 656.82)" fill="#cdd4dd"/><path d="M37.417,188.594a1.51,1.51,0,1,1,1.51,1.51,1.51,1.51,0,0,1-1.51-1.51" transform="translate(1398.124 656.82)" fill="#cdd4dd"/><path d="M74.834,188.594a1.51,1.51,0,1,1,1.51,1.51,1.51,1.51,0,0,1-1.51-1.51" transform="translate(1349.626 656.82)" fill="#cdd4dd"/><path d="M112.251,188.594a1.51,1.51,0,1,1,1.51,1.51,1.51,1.51,0,0,1-1.51-1.51" transform="translate(1301.128 656.82)" fill="#cdd4dd"/><path d="M149.668,188.594a1.51,1.51,0,1,1,1.51,1.51,1.51,1.51,0,0,1-1.51-1.51" transform="translate(1252.63 656.82)" fill="#cdd4dd"/><path d="M187.085,188.594a1.51,1.51,0,1,1,1.51,1.51,1.51,1.51,0,0,1-1.51-1.51" transform="translate(1204.132 656.82)" fill="#cdd4dd"/><path d="M0,151.177a1.51,1.51,0,1,1,1.51,1.51A1.51,1.51,0,0,1,0,151.177" transform="translate(1446.621 683.156)" fill="#cdd4dd"/><path d="M37.417,151.177a1.51,1.51,0,1,1,1.51,1.51,1.51,1.51,0,0,1-1.51-1.51" transform="translate(1398.124 683.156)" fill="#cdd4dd"/><path d="M74.834,151.177a1.51,1.51,0,1,1,1.51,1.51,1.51,1.51,0,0,1-1.51-1.51" transform="translate(1349.626 683.156)" fill="#cdd4dd"/><path d="M112.251,151.177a1.51,1.51,0,1,1,1.51,1.51,1.51,1.51,0,0,1-1.51-1.51" transform="translate(1301.128 683.156)" fill="#cdd4dd"/><path d="M149.668,151.177a1.51,1.51,0,1,1,1.51,1.51,1.51,1.51,0,0,1-1.51-1.51" transform="translate(1252.63 683.156)" fill="#cdd4dd"/><path d="M0,113.76a1.51,1.51,0,1,1,1.51,1.51A1.51,1.51,0,0,1,0,113.76" transform="translate(1446.621 709.493)" fill="#cdd4dd"/><path d="M37.417,113.76a1.51,1.51,0,1,1,1.51,1.51,1.51,1.51,0,0,1-1.51-1.51" transform="translate(1398.124 709.493)" fill="#cdd4dd"/><path d="M74.834,113.76a1.51,1.51,0,1,1,1.51,1.51,1.51,1.51,0,0,1-1.51-1.51" transform="translate(1349.626 709.493)" fill="#cdd4dd"/><path d="M112.251,113.76a1.51,1.51,0,1,1,1.51,1.51,1.51,1.51,0,0,1-1.51-1.51" transform="translate(1301.128 709.493)" fill="#cdd4dd"/><path d="M0,76.343a1.51,1.51,0,1,1,1.51,1.51A1.51,1.51,0,0,1,0,76.343" transform="translate(1446.621 735.829)" fill="#cdd4dd"/><path d="M37.417,76.343a1.51,1.51,0,1,1,1.51,1.51,1.51,1.51,0,0,1-1.51-1.51" transform="translate(1398.124 735.829)" fill="#cdd4dd"/><path d="M74.834,76.343a1.51,1.51,0,1,1,1.51,1.51,1.51,1.51,0,0,1-1.51-1.51" transform="translate(1349.626 735.829)" fill="#cdd4dd"/><path d="M0,38.926a1.51,1.51,0,1,1,1.51,1.51A1.51,1.51,0,0,1,0,38.926" transform="translate(1446.621 762.165)" fill="#cdd4dd"/><path d="M37.417,38.926a1.51,1.51,0,1,1,1.51,1.51,1.51,1.51,0,0,1-1.51-1.51" transform="translate(1398.124 762.165)" fill="#cdd4dd"/><path d="M0,1.51A1.51,1.51,0,1,1,1.51,3.02,1.51,1.51,0,0,1,0,1.51" transform="translate(1446.621 788.5)" fill="#cdd4dd"/></g></svg>