<?xml version="1.0" encoding="UTF-8"?>
<svg width="70px" height="70px" viewBox="0 0 70 70" version="1.1" xmlns="http://www.w3.org/2000/svg" xmlns:xlink="http://www.w3.org/1999/xlink">
    <title>broadcaster</title>
    <g id="Page-1" stroke="none" stroke-width="1" fill="none" fill-rule="evenodd">
        <g id="800x800" transform="translate(-383.000000, -461.000000)">
            <g id="broadcaster" transform="translate(383.000000, 461.000000)">
                <rect id="Rectangle-Copy-13" fill="#AB2E54" fill-rule="nonzero" x="0" y="0" width="70" height="70" rx="5"></rect>
                <g id="Asset-14" transform="translate(12.000000, 19.000000)" fill="#FFFFFF">
                    <path d="M23.1305405,21.3216222 C25.1404058,21.3206922 26.9521195,20.1100282 27.7219565,18.2534426 C28.4917935,16.3968569 28.0683866,14.2593957 26.6489189,12.8364865 L26.6489189,12.8364865 C25.0585659,11.2422777 22.5954417,10.9156657 20.6445675,12.0403054 C18.6936933,13.164945 17.7419869,15.4601381 18.3245953,17.6352914 C18.9072036,19.8104448 20.8787139,21.3226629 23.1305405,21.3216222 L23.1305405,21.3216222 Z M21.6821622,14.9189189 C22.2668756,14.333511 23.1467151,14.1580928 23.9112278,14.4744985 C24.6757404,14.7909042 25.1742844,15.5367883 25.1742844,16.3641892 C25.1742844,17.1915901 24.6757404,17.9374742 23.9112278,18.2538799 C23.1467151,18.5702856 22.2668756,18.3948674 21.6821622,17.8094595 C20.8880399,17.0095737 20.8880399,15.7188047 21.6821622,14.9189189 Z" id="Shape" fill-rule="nonzero"></path>
                    <path d="M15.4783784,24.007027 C16.0499931,24.5786417 16.9767637,24.5786417 17.5483784,24.007027 C18.1199931,23.4354123 18.1199931,22.5086417 17.5483784,21.937027 C16.0618639,20.4547018 15.2263957,18.4417213 15.2263957,16.3424324 C15.2263957,14.2431436 16.0618639,12.2301631 17.5483784,10.7478378 C18.0295093,10.1645566 17.9860369,9.31052961 17.4481649,8.77911857 C16.9102929,8.24770753 16.055803,8.21455846 15.4783784,8.7027027 C11.2559889,12.9304414 11.2559889,19.7792883 15.4783784,24.007027 L15.4783784,24.007027 Z" id="Path"></path>
                    <path d="M28.7127027,24.007027 C29.2878289,24.5701005 30.2075765,24.5701005 30.7827027,24.007027 C35.0050922,19.7792883 35.0050922,12.9304414 30.7827027,8.7027027 C30.4140432,8.33293282 29.876118,8.18792884 29.3715581,8.32231236 C28.8669983,8.45669588 28.4724585,8.85005084 28.3365581,9.35420425 C28.2006577,9.85835765 28.3440432,10.3967166 28.7127027,10.7664865 C30.1992172,12.2488117 31.0346854,14.2617923 31.0346854,16.3610811 C31.0346854,18.4603699 30.1992172,20.4733504 28.7127027,21.9556757 C28.1518509,22.5244542 28.1518509,23.4382485 28.7127027,24.007027 Z" id="Path"></path>
                    <path d="M11.3445946,28.1408108 C11.9162093,28.710709 12.8415883,28.7093174 13.4114865,28.1377027 C13.9813846,27.566088 13.9799931,26.640709 13.4083784,26.0708108 C8.05054858,20.6990469 8.05054858,12.0044666 13.4083784,6.6327027 C13.9799931,6.06280455 13.9813846,5.13742553 13.4114865,4.56581081 C12.8415883,3.99419609 11.9162093,3.99280455 11.3445946,4.5627027 C4.84376797,11.0777929 4.84376797,21.6257206 11.3445946,28.1408108 L11.3445946,28.1408108 Z" id="Path"></path>
                    <path d="M32.8527027,26.0708108 C32.281088,26.640709 32.2796964,27.566088 32.8495946,28.1377027 C33.4194927,28.7093174 34.3448718,28.710709 34.9164865,28.1408108 C41.4173131,21.6257206 41.4173131,11.0777929 34.9164865,4.5627027 C34.3448718,3.99280455 33.4194927,3.99419609 32.8495946,4.56581081 C32.2796964,5.13742553 32.281088,6.06280455 32.8527027,6.6327027 C38.2105325,12.0044666 38.2105325,20.6990469 32.8527027,26.0708108 Z" id="Path"></path>
                    <path d="M8.2427027,32.7035143 C8.83017528,32.7001929 9.35849963,32.3452713 9.58368343,31.8026597 C9.80886723,31.2600481 9.68709131,30.6353349 9.27459459,30.217027 C1.62249403,22.557182 1.62249403,10.1463315 9.27459459,2.48648649 C9.79971508,1.90818187 9.77696111,1.01909554 9.22294688,0.468408715 C8.66893264,-0.082278108 7.77972537,-0.0996757717 7.20459459,0.428918919 C-1.57395704,9.22922814 -1.57395704,23.4742854 7.20459459,32.2745946 C7.48002754,32.5496227 7.85346803,32.7039185 8.2427027,32.7035143 Z" id="Path"></path>
                    <path d="M36.9864865,30.2108108 C36.4165883,30.7824255 36.4179799,31.7078045 36.9895946,32.2777027 C37.5612093,32.8476009 38.4865883,32.8462093 39.0564865,32.2745946 C47.8350381,23.4742854 47.8350381,9.22922814 39.0564865,0.428918919 C38.4813557,-0.0996757717 37.5921484,-0.082278108 37.0381342,0.468408715 C36.48412,1.01909554 36.461366,1.90818187 36.9864865,2.48648649 C44.634448,10.1456175 44.634448,22.5516798 36.9864865,30.2108108 L36.9864865,30.2108108 Z" id="Path"></path>
                </g>
            </g>
        </g>
    </g>
</svg>