<?xml version="1.0" encoding="UTF-8"?>
<svg width="70px" height="70px" viewBox="0 0 70 70" version="1.1" xmlns="http://www.w3.org/2000/svg" xmlns:xlink="http://www.w3.org/1999/xlink">
    <title>bug hunter</title>
    <g id="Page-1" stroke="none" stroke-width="1" fill="none" fill-rule="evenodd">
        <g id="800x800" transform="translate(-48.000000, -556.000000)" fill-rule="nonzero">
            <g id="bug-hunter" transform="translate(48.000000, 556.000000)">
                <rect id="Rectangle-Copy-5" fill="#B13917" x="0" y="0" width="70" height="70" rx="5"></rect>
                <g id="Asset-6" transform="translate(11.000000, 14.000000)" fill="#FFFFFF">
                    <path d="M46.0385253,24.0676775 L38.8606239,24.0676775 C38.7321017,22.5802336 38.4249145,21.1145491 37.9459715,19.7035894 L41.0230803,19.7035894 C43.2062138,19.7001855 44.9751621,17.8949877 44.9784977,15.667117 L44.9784977,13.3861701 C45.0101446,12.9360564 44.7927684,12.5056049 44.4151918,12.2707038 C44.0376153,12.0358027 43.5630901,12.0358027 43.1855135,12.2707038 C42.8079369,12.5056049 42.5905607,12.9360564 42.6222077,13.3861701 L42.6222077,15.667117 C42.6188864,16.5669811 41.9048746,17.2956246 41.0230803,17.2990139 L37.1645797,17.2990139 C37.0900031,17.2926497 37.0150361,17.2926497 36.9404596,17.2990139 C35.7692282,14.9838375 34.0388696,13.0116534 31.9128999,11.5688302 L28.5268688,6.22189507 L32.7124636,1.95052836 C33.0796602,1.47405272 33.0429942,0.79341597 32.6268294,0.360887406 C32.2106646,-0.0716411591 31.5444772,-0.121494355 31.0709351,0.244454252 L27.0064863,4.3921924 C25.8569908,3.6088756 24.3627375,3.59190562 23.1964442,4.34892241 L19.4166885,0.510255653 C19.1969609,0.282607165 18.8969288,0.154424282 18.5838096,0.154424282 C18.2706904,0.154424282 17.9706584,0.282607165 17.7509308,0.510255653 C17.5293607,0.735308227 17.4047965,1.04118066 17.4047965,1.360202 C17.4047965,1.67922333 17.5293607,1.98509576 17.7509308,2.21014834 L21.6518325,6.19716936 L18.2294575,11.5997374 C16.0925832,13.0491567 14.357064,15.0352398 13.1897833,17.3670097 C13.0742262,17.3295687 12.9536428,17.3107977 12.8324026,17.3113768 L8.97390198,17.3113768 C8.09210769,17.3079874 7.37809587,16.579344 7.37477458,15.6794798 L7.37477458,13.3861701 C7.40642151,12.9360564 7.18904531,12.5056049 6.81146874,12.2707038 C6.43389218,12.0358027 5.95936698,12.0358027 5.58179042,12.2707038 C5.20421385,12.5056049 4.98683765,12.9360564 5.01848458,13.3861701 L5.01848458,15.667117 C5.02182016,17.8949877 6.79076841,19.7001855 8.97390198,19.7035894 L12.196386,19.7035894 C11.7174429,21.1145491 11.4102558,22.5802336 11.2817336,24.0676775 L3.95845695,24.0676775 C1.77532338,24.0710815 0.00637513714,25.8762793 0.00303955671,28.10415 L0.00303955671,32.0355382 C-0.0286073803,32.4856519 0.188768827,32.9161033 0.566345392,33.1510044 C0.943921957,33.3859055 1.41844715,33.3859055 1.79602372,33.1510044 C2.17360028,32.9161033 2.39097649,32.4856519 2.35932955,32.0355382 L2.35932955,28.10415 C2.35932955,27.2028782 3.07528327,26.472253 3.95845695,26.472253 L11.2272179,26.472253 C11.2821578,27.9497873 11.5119845,29.4151202 11.9116928,30.8363411 L8.97390198,30.8363411 C6.78840581,30.8397514 5.01848203,32.6487107 5.01848458,34.878995 L5.01848458,37.1599419 C4.98683765,37.6100556 5.20421385,38.0405071 5.58179042,38.2754082 C5.95936698,38.5103092 6.43389218,38.5103092 6.81146874,38.2754082 C7.18904531,38.0405071 7.40642151,37.6100556 7.37477458,37.1599419 L7.37477458,34.878995 C7.38801393,33.9873939 8.10010451,33.2717214 8.97390198,33.2718237 L12.7900015,33.2718237 C15.1099476,38.4580418 19.7437827,42 25.0742074,42 C30.4046321,42 35.0384671,38.4333161 37.352356,33.2718237 L41.0230803,33.2718237 C41.9048746,33.2752131 42.6188864,34.0038566 42.6222077,34.9037207 L42.6222077,37.1846676 C42.5905607,37.6347813 42.8079369,38.0652328 43.1855135,38.3001339 C43.5630901,38.5350349 44.0376153,38.5350349 44.4151918,38.3001339 C44.7927684,38.0652328 45.0101446,37.6347813 44.9784977,37.1846676 L44.9784977,34.878995 C44.9751621,32.6511243 43.2062138,30.8459265 41.0230803,30.8425226 L38.2306646,30.8425226 C38.630855,29.4193026 38.8606863,27.9518646 38.9151396,26.472253 L46.0385253,26.472253 C46.9193389,26.4722466 47.6343163,27.1991117 47.6376527,28.0979686 L47.6376527,32.0355382 C47.6376527,32.7012503 48.1664822,33.2409166 48.8188264,33.2409166 C49.4711705,33.2409166 50,32.7012503 50,32.0355382 L50,28.10415 C49.9966583,25.8738683 48.224024,24.0676749 46.0385253,24.0676775 Z M24.1110966,6.7596793 C24.3222436,6.42794026 24.6835469,6.22776885 25.0711787,6.22776885 C25.4588106,6.22776885 25.8201139,6.42794026 26.0312609,6.7596793 L26.0312609,6.7596793 L26.0312609,6.7596793 L27.9877691,9.85039327 C26.0685441,9.36351107 24.0616988,9.36351107 22.1424738,9.85039327 L24.1110966,6.7596793 Z M25.0742074,11.9026274 C28.6480148,11.9026274 31.5615765,14.2021185 31.5615765,17.0208497 C31.5615765,19.8395808 28.6480148,22.1452535 25.0742074,22.1452535 C21.5003999,22.1452535 18.580781,19.8457623 18.580781,17.0270311 C18.580781,14.2083 21.4943426,11.9088088 25.0742074,11.9088088 L25.0742074,11.9026274 Z M25.0742074,39.5954245 C18.7322135,39.5954245 13.565336,33.4139966 13.565336,25.7490259 C13.5385394,22.5895585 14.467114,19.4985162 16.224491,16.8972211 C16.2214732,16.9383731 16.2214732,16.9796977 16.224491,17.0208497 C16.224491,20.8286093 19.568121,23.9811375 23.8930337,24.4756518 L23.8930337,31.9428167 C23.8613868,32.3929304 24.078763,32.8233819 24.4563396,33.058283 C24.8339161,33.293184 25.3084413,33.293184 25.6860179,33.058283 C26.0635945,32.8233819 26.2809707,32.3929304 26.2493237,31.9428167 L26.2493237,24.4509261 C30.5742365,23.9625933 33.9239238,20.8038836 33.9239238,16.996124 L33.9239238,16.8724954 C35.6766523,19.4757449 36.6028469,22.5659039 36.5770215,25.7243002 C36.5770215,33.3583637 31.4222586,39.5706988 25.0681501,39.5706988 L25.0742074,39.5954245 Z" id="Shape"></path>
                </g>
            </g>
        </g>
    </g>
</svg>