<?xml version="1.0" encoding="UTF-8"?>
<svg width="70px" height="70px" viewBox="0 0 70 70" version="1.1" xmlns="http://www.w3.org/2000/svg" xmlns:xlink="http://www.w3.org/1999/xlink">
    <title>chatter box</title>
    <g id="Page-1" stroke="none" stroke-width="1" fill="none" fill-rule="evenodd">
        <g id="800x800" transform="translate(-47.000000, -746.000000)" fill-rule="nonzero">
            <g id="chatter-box" transform="translate(47.000000, 746.000000)">
                <rect id="Rectangle-Copy-7" fill="#6D3A94" x="0" y="0" width="70" height="70" rx="5"></rect>
                <g id="Asset-8" transform="translate(13.000000, 18.000000)" fill="#FFFFFF">
                    <path d="M0,34.2113924 L0,12.2924051 C0.00941273748,5.50739992 5.50739992,0.00941273748 12.2924051,0 L32.4968354,0 C39.2805426,0.012539232 44.7767013,5.50869792 44.7892405,12.2924051 L44.7892405,16.0689873 C44.7798359,22.8549189 39.2827619,28.3545402 32.4968354,28.3670886 L12.5601266,28.3670886 L0,34.2113924 Z M12.2924051,2.73987342 C7.01928994,2.74615094 2.74615094,7.01928994 2.73987342,12.2924051 L2.73987342,29.9164557 L11.9620253,25.6329114 L32.4683544,25.6329114 C35.0078243,25.6374489 37.4448382,24.6318275 39.2421196,22.8377518 C41.0394009,21.0436761 42.0493671,18.6084613 42.0493671,16.0689873 L42.0493671,12.2924051 C42.0430896,7.01928994 37.7699506,2.74615094 32.4968354,2.73987342 L12.2924051,2.73987342 Z M13.1924051,12.0816392 C14.633234,12.0785031 15.8038048,13.243977 15.8069559,14.684806 C15.8100943,16.125635 14.6446223,17.2962076 13.2037933,17.299361 C11.7629643,17.3025017 10.5923899,16.1370315 10.5892343,14.6962025 C10.5877281,14.0042891 10.8611401,13.3401141 11.3493285,12.8497892 C11.8375169,12.3594643 12.5004917,12.0831546 13.1924051,12.0816392 L13.1924051,12.0816392 Z M31.5968354,12.0816393 C33.0361816,12.0847917 34.2010418,13.2530517 34.1999938,14.6924009 C34.1989444,16.1317501 33.032383,17.2983115 31.5930338,17.2993609 C30.1536846,17.3004089 28.9854246,16.1355487 28.9822722,14.6962025 C28.9807618,14.0023151 29.2557362,13.3364107 29.7463899,12.845757 C30.2370436,12.3551033 30.902948,12.0801289 31.5968354,12.0816393 L31.5968354,12.0816393 Z M22.3974684,12.0816393 C23.8368145,12.0847917 25.0016747,13.2530517 25.0006267,14.6924009 C24.9995773,16.1317501 23.833016,17.2983115 22.3936667,17.2993609 C20.9543175,17.3004089 19.7860575,16.1355487 19.7829052,14.6962025 C19.7813947,14.0023151 20.0563691,13.3364107 20.5470228,12.845757 C21.0376765,12.3551033 21.7035809,12.0801289 22.3974684,12.0816393 L22.3974684,12.0816393 Z" id="Shape"></path>
                </g>
            </g>
        </g>
    </g>
</svg>