<?xml version="1.0" encoding="UTF-8"?>
<svg width="70px" height="70px" viewBox="0 0 70 70" version="1.1" xmlns="http://www.w3.org/2000/svg" xmlns:xlink="http://www.w3.org/1999/xlink">
    <title>cloner</title>
    <g id="Page-1" stroke="none" stroke-width="1" fill="none" fill-rule="evenodd">
        <g id="800x800" transform="translate(-48.000000, -461.000000)">
            <g id="cloner" transform="translate(48.000000, 461.000000)">
                <rect id="Rectangle-Copy-4" fill="#2477B8" fill-rule="nonzero" x="0" y="0" width="70" height="70" rx="5"></rect>
                <g id="Asset-5" transform="translate(12.000000, 12.000000)" fill="#FFFFFF">
                    <path d="M46.7682192,27.1312329 L46.7682192,19.6369863 L41.2956164,18.7227397 C40.8735095,17.0738646 40.2234067,15.4919477 39.3641096,14.0227397 L42.5832877,9.51589041 L37.2716438,4.19780822 L32.7647945,7.4169863 C31.2962254,6.55639901 29.7141227,5.90621981 28.0647945,5.48547945 L27.1312329,0 L19.6369863,0 L18.7227397,5.4790411 C17.0741813,5.90210267 15.4923937,6.55215237 14.0227397,7.41054795 L9.51589041,4.19136986 L4.19780822,9.49657534 L7.4169863,14.0034247 C6.55746267,15.4725205 5.90734649,17.0544699 5.48547945,18.7034247 L0,19.6369863 L0,27.1312329 L5.4790411,28.0454795 C5.89978145,29.6948076 6.54996065,31.2769103 7.41054795,32.7454795 L4.19136986,37.2523288 L9.49657534,42.5510959 L14.0034247,39.3319178 C15.4731895,40.1900892 17.0549451,40.8401257 18.7034247,41.2634247 L19.6176712,46.7360274 L27.1312329,46.7360274 L28.0454795,41.2634247 C29.6947273,40.8424419 31.276797,40.1922763 32.7454795,39.3319178 L37.2523288,42.5510959 L42.5510959,37.2523288 L39.3319178,32.7454795 C40.1922763,31.276797 40.8424419,29.6947273 41.2634247,28.0454795 L46.7682192,27.1312329 Z M39.5443836,26.9831507 C39.1252069,28.8603337 38.3799367,30.649418 37.3424658,32.2690411 L36.9947945,32.8227397 L40.0208219,37.0591781 L37.0527397,40.0272603 L32.8356164,37.0012329 L32.2754795,37.3489041 C30.6582466,38.3850876 28.871119,39.1282711 26.9960274,39.5443836 L26.3521918,39.6860274 L25.4958904,44.8367123 L21.2852055,44.8367123 L20.4353425,39.6860274 L19.7915068,39.5443836 C17.9135917,39.1275173 16.1241149,38.3820836 14.5056164,37.3424658 L13.9519178,36.9947945 L9.7090411,40.0208219 L6.7409589,37.0527397 L9.77342466,32.8356164 L9.41931507,32.2819178 C8.38410435,30.66185 7.64102317,28.8727894 7.22383562,26.9960274 L7.08219178,26.3521918 L1.93150685,25.4830137 L1.93150685,21.2852055 L7.08219178,20.4289041 L7.22383562,19.7850685 C7.63871408,17.9075773 8.38195811,16.1181246 9.41931507,14.4991781 L9.77342466,13.9454795 L6.7409589,9.70260274 L9.7090411,6.73452055 L13.9519178,9.7669863 L14.5056164,9.41287671 C16.124563,8.37551976 17.9140156,7.63227572 19.7915068,7.21739726 L20.4353425,7.07575342 L21.2852055,1.92506849 L25.4830137,1.92506849 L26.3393151,7.07575342 L26.9831507,7.21739726 C28.8582423,7.63350971 30.6453699,8.37669326 32.2626027,9.41287671 L32.8227397,9.7669863 L37.0591781,6.73452055 L40.0272603,9.70260274 L37.0012329,13.9454795 L37.3489041,14.4991781 C38.3862611,16.1181246 39.1295051,17.9075773 39.5443836,19.7850685 L39.6860274,20.4289041 L44.8367123,21.2852055 L44.8367123,25.4830137 L39.6860274,26.3393151 L39.5443836,26.9831507 Z" id="Shape" fill-rule="nonzero"></path>
                    <polygon id="Path" points="28.2321918 19.0575342 26.8543836 20.4353425 29.8031507 23.3841096 26.8543836 26.3328767 28.2321918 27.7106849 32.5587671 23.3841096"></polygon>
                    <polygon id="Path" points="19.9138356 20.4353425 18.5424658 19.0575342 14.2094521 23.3841096 18.5424658 27.7106849 19.9138356 26.3328767 16.9715068 23.3841096"></polygon>
                    <polygon id="Rectangle" transform="translate(23.365821, 23.979816) rotate(-70.020000) translate(-23.365821, -23.979816) " points="17.2075333 23.0044049 29.5241086 23.0044049 29.5241086 24.9552268 17.2075333 24.9552268"></polygon>
                    <path d="M23.3841096,10.719863 C18.2587102,10.719863 13.6381119,13.807674 11.6773084,18.543175 C9.71650498,23.2786759 10.8017356,28.7290682 14.4268612,32.3523518 C18.0519868,35.9756353 23.5029299,37.0580956 28.2374336,35.0948855 C32.9719374,33.1316755 36.0573989,28.5095084 36.0547962,23.3841096 C36.0476915,16.39027 30.3779519,10.7234114 23.3841096,10.719863 Z M23.3841096,34.1039726 C17.4662188,34.0933097 12.676464,29.2891522 12.6835615,23.3712561 C12.6906748,17.4533599 17.4919521,12.660718 23.4098514,12.6642639 C29.3277508,12.6678138 34.1232896,17.4662092 34.1232896,23.3841096 C34.1249971,26.2328404 32.9941002,28.9653857 30.9797429,30.9797429 C28.9653857,32.9941002 26.2328404,34.1249971 23.3841096,34.1232896 L23.3841096,34.1039726 Z" id="Shape" fill-rule="nonzero"></path>
                </g>
            </g>
        </g>
    </g>
</svg>