<?xml version="1.0" encoding="UTF-8"?>
<svg width="70px" height="70px" viewBox="0 0 70 70" version="1.1" xmlns="http://www.w3.org/2000/svg" xmlns:xlink="http://www.w3.org/1999/xlink">
    <title>community editor</title>
    <g id="Page-1" stroke="none" stroke-width="1" fill="none" fill-rule="evenodd">
        <g id="800x800" transform="translate(-47.000000, -651.000000)" fill-rule="nonzero">
            <g id="community-editor" transform="translate(47.000000, 651.000000)">
                <rect id="Rectangle-Copy-6" fill="#29AEB8" x="0" y="0" width="70" height="70" rx="5"></rect>
                <g id="Asset-7" transform="translate(15.000000, 9.000000)" fill="#FFFFFF">
                    <path d="M27.5807718,25.2728344 L27.1281493,25.2728344 L27.1281493,22.4869748 C28.9513892,21.2821065 29.9713836,19.1847431 30.5260055,17.5463772 L35.4602282,19.6309906 C35.8087408,19.7799505 36.1840892,19.8558881 36.5630971,19.8541144 C37.7044975,19.8516149 38.7348019,19.169759 39.1832075,18.120124 L39.7824542,16.6985069 C40.0725153,16.0029133 40.0725153,15.2202375 39.7824542,14.524644 C39.5049756,13.8212816 38.952324,13.2617219 38.2524627,12.9755275 L32.3938702,10.5084162 L32.6871185,9.56492144 L32.6871185,9.52667165 C33.0620772,7.95111653 32.088808,6.36991101 30.5132556,5.99494123 L30.4048812,5.99494123 C29.925834,5.8735129 29.4240615,5.8735129 28.9450143,5.99494123 C28.5660801,5.18581316 27.8382391,4.59414883 26.9687752,4.38845013 L26.8604008,4.38845013 C26.395634,4.2736795 25.9099255,4.2736795 25.4451587,4.38845013 C25.4064501,4.31403634 25.3638927,4.24168878 25.3176594,4.17170134 C24.9146758,3.50615158 24.2591595,3.03233985 23.5007945,2.85845862 L23.3924201,2.85845862 C23.0032896,2.7685776 22.600074,2.75773847 22.2066766,2.82658379 C22.1377195,2.63977595 22.0501546,2.46037469 21.9453031,2.29108676 C21.5423195,1.625537 20.8868032,1.15172527 20.1284381,0.977844039 L20.0200637,0.977844039 C19.2921886,0.773965883 18.5132608,0.865604445 17.8525758,1.23284263 C17.1931286,1.63355327 16.7205284,2.28051083 16.539333,3.03058266 L16.3480841,3.7445787 L8.72362636,0.550721407 L8.72362636,0.550721407 L8.65987672,0.550721407 L8.608877,0.512471619 L8.55150232,0.512471619 L8.5005026,0.512471619 L8.37300331,0.512471619 L1.15016834,0.00247444548 C0.699022117,-0.0280650066 0.2768116,0.226360215 0.0930322631,0.639507561 C-0.0907470736,1.05265491 0.00301618236,1.5365995 0.3277979,1.8512142 L5.42776963,6.81093671 L5.42776963,6.81093671 L5.42776963,6.81093671 L5.49151928,6.86831139 L5.52976907,6.86831139 L5.56164389,6.86831139 L5.56164389,6.86831139 L5.61901857,6.86831139 C5.75423731,6.95924863 5.89715703,7.03817445 6.0461412,7.10418508 L10.6679906,9.05492427 C10.3429402,10.1210493 10.0978864,11.2099406 9.93486965,12.3125312 C9.34199794,15.6912625 11.7581095,19.1974931 12.5677301,20.2621121 L12.5677301,25.16446 L11.68161,25.16446 C11.394766,25.164455 11.1197624,25.2788378 10.9175322,25.4822646 C10.7153021,25.6856914 10.6025436,25.961365 10.6042409,26.248204 L10.6042409,50.7776956 C10.6025319,51.0639521 10.7154912,51.3389793 10.9179088,51.5413968 C11.1203263,51.7438144 11.3953534,51.8567737 11.68161,51.8550646 L27.5807718,51.8550646 C28.1480482,51.8747028 28.633258,51.4508413 28.6900157,50.88607 L28.6900157,39.769504 C28.6466129,39.2048505 28.1757783,38.7688183 27.6094592,38.7688183 C27.04314,38.7688183 26.5723054,39.2048505 26.5289027,39.769504 L26.5289027,49.7895761 L12.752604,49.7895761 L12.752604,32.9801667 L26.4970278,32.9801667 L26.4970278,35.9764 C26.5404306,36.5410536 27.0112652,36.9770858 27.5775844,36.9770858 C28.1439035,36.9770858 28.6147381,36.5410536 28.6581409,35.9764 L28.6581409,26.3565784 C28.6581512,25.7605239 28.176816,25.2763406 27.5807718,25.2728344 Z M37.7807153,15.3342645 C37.8508426,15.5014577 37.8508426,15.6898183 37.7807153,15.8570116 L37.1814686,17.2786287 C37.1128314,17.4465024 36.9795944,17.5797395 36.8117207,17.6483766 C36.6422484,17.7181559 36.4520709,17.7181559 36.2825986,17.6483766 L35.0076057,17.1192546 L36.218849,14.4736442 L37.3982174,14.9708915 C37.5818585,15.0246466 37.7316418,15.1580473 37.8062152,15.3342645 L37.7807153,15.3342645 Z M34.236235,13.6257739 L33.0313666,16.2713843 L31.0487526,15.4362639 C31.0487526,15.3597643 31.0487526,15.3023896 31.0487526,15.2577649 L31.7818736,12.6057796 L34.236235,13.6257739 Z M6.64538788,2.55246031 L5.84214233,4.22270105 L3.92965294,2.34208648 L6.64538788,2.55246031 Z M8.83837573,2.97320798 L15.7488374,5.84831704 L14.9965916,8.64692653 L7.60800755,5.52319385 L8.83837573,2.97320798 Z M12.0641078,12.8225284 C12.2075136,11.8821553 12.4097849,10.9517073 12.6697295,10.0366688 L14.6204687,10.8399144 C14.7458303,11.1571116 15.0163884,11.3944433 15.3472146,11.4774108 C15.9225981,11.6320106 16.5148777,11.2931584 16.6732073,10.71879 L18.5856967,3.56607969 L18.5856967,3.5469548 C18.6326139,3.34719871 18.7571864,3.17436779 18.9318576,3.06669377 C19.1065288,2.95901975 19.3169022,2.92537714 19.5164415,2.97320798 L19.6248159,2.97320798 C19.824572,3.02012519 19.9974029,3.14469766 20.105077,3.31936885 C20.212751,3.49404004 20.2463936,3.70441353 20.1985628,3.90395282 L20.0901884,4.36295028 L18.8151954,8.76805086 C18.6510731,9.34178748 18.9816527,9.94025053 19.5546913,10.1067934 C19.6526973,10.1313706 19.7532774,10.1442106 19.8543147,10.1450432 C20.3347993,10.1448092 20.7577677,9.82823159 20.8934339,9.36729754 L22.1174271,5.11519611 C22.3044435,4.88940612 22.6040538,4.79036137 22.8887978,4.86019752 L22.9971722,4.86019752 C23.1958166,4.9071662 23.3677459,5.03095527 23.4752946,5.20444561 C23.5821341,5.37539313 23.6165411,5.58183465 23.5709191,5.77819243 L22.4425503,9.60317123 C22.3596774,9.87708518 22.389875,10.1727729 22.5264073,10.4242798 C22.6629396,10.6757866 22.894449,10.8621908 23.1692963,10.9419138 C23.268413,10.9723518 23.3716131,10.9874018 23.4752946,10.9865386 C23.9530619,10.9885518 24.3743808,10.6738629 24.5080389,10.2151678 L25.5535331,6.68343741 C25.7381477,6.43307727 26.053301,6.31552009 26.3567786,6.38381407 L26.465153,6.4156889 C26.6658176,6.46104288 26.8397577,6.58530715 26.9477121,6.76043315 C27.0556665,6.93555915 27.0885354,7.14678512 27.0388998,7.34643374 L26.8731508,8.03492992 L25.9551559,10.9610387 C25.8693985,11.2340919 25.8958118,11.5300462 26.0285675,11.7835976 C26.1613232,12.0371489 26.3895099,12.2274577 26.6627769,12.3125312 C26.7674204,12.3480679 26.8774017,12.3653198 26.9879001,12.3635309 C27.4594897,12.3864172 27.8910365,12.0995807 28.0525192,11.6559099 L28.9832641,8.68517632 C28.9832641,8.68517632 28.9832641,8.68517632 28.9832641,8.64692653 C28.9826458,8.63631058 28.9826458,8.62566765 28.9832641,8.61505171 C29.0301813,8.41529562 29.1547538,8.2424647 29.3294249,8.13479068 C29.5040961,8.02711666 29.7144696,7.99347404 29.9140089,8.04130489 L30.0287583,8.04130489 C30.4356346,8.13922835 30.6902128,8.54372473 30.6025051,8.95292483 L29.0087639,14.690393 C29.0058055,14.737096 29.0058055,14.7839393 29.0087639,14.8306423 C29.0087639,14.875267 28.3266427,19.4716165 25.6045328,20.8486089 C25.2409044,21.0316914 25.0115334,21.4041109 25.0116611,21.8112286 L25.0116611,25.1070853 L14.8117176,25.1070853 L14.8117176,19.9943636 C14.8112043,19.7429752 14.7233132,19.4995843 14.563094,19.3058674 C14.4483446,19.2676177 11.5477357,15.7550121 12.0641078,12.7906536 L12.0641078,12.8225284 Z M12.752604,30.8254286 L12.752604,27.4148225 L26.4970278,27.4148225 L26.4970278,30.8063037 L12.752604,30.8254286 Z" id="Shape"></path>
                </g>
            </g>
        </g>
    </g>
</svg>