<?xml version="1.0" encoding="UTF-8"?>
<svg width="70px" height="70px" viewBox="0 0 70 70" version="1.1" xmlns="http://www.w3.org/2000/svg" xmlns:xlink="http://www.w3.org/1999/xlink">
    <title>connected with Discord</title>
    <g id="Page-1" stroke="none" stroke-width="1" fill="none" fill-rule="evenodd">
        <g id="800x800" transform="translate(-588.000000, -1048.000000)" fill-rule="nonzero">
            <g id="connected-with-Discord" transform="translate(588.000000, 1048.000000)">
                <g id="open-source-contributor-copy-2" fill="#7289DA">
                    <rect id="Rectangle-Copy-8" x="0" y="0" width="70" height="70" rx="5"></rect>
                </g>
                <path d="M51.6605636,19.1063553 C48.553438,17.6551815 45.2311521,16.6005287 41.7577933,16 C41.3312232,16.7698564 40.8328671,17.8053301 40.4892686,18.6290456 C36.796999,18.0747568 33.1386814,18.0747568 29.5143156,18.6290456 C29.1707829,17.8053301 28.6611095,16.7698564 28.2307231,16 C24.7536138,16.6005287 21.4275116,17.6590567 18.320386,19.11404 C12.0532856,28.5676878 10.3543777,37.7865232 11.2038333,46.8744547 C15.3605037,49.9730595 19.3888182,51.8553687 23.3491499,53.0870995 C24.3269779,51.7437096 25.1990681,50.3156558 25.9503526,48.8106229 C24.5195036,48.2678942 23.1490574,47.5981368 21.8541475,46.8205956 C22.1976803,46.5665384 22.533712,46.3009212 22.8583606,46.0276192 C30.7563894,49.7151927 39.337799,49.7151927 47.1414731,46.0276192 C47.469938,46.3009212 47.8059039,46.5665384 48.1456862,46.8205956 C46.84696,47.6019464 45.4727633,48.2717037 44.0419142,48.8144982 C44.7931988,50.3156558 45.6615385,51.7475848 46.643117,53.0909091 C50.607265,51.8591782 54.6393168,49.9769347 58.7959905,46.8744547 C59.7927026,36.3392246 57.0933288,27.2050531 51.6605636,19.1063553 Z M27.3633063,42.1818182 C24.9659927,42.1818182 23,39.9691358 23,37.2746348 C23,34.5801338 24.9240116,32.3636364 27.3633063,32.3636364 C29.8026675,32.3636364 31.7685938,34.5762529 31.7266127,37.2746348 C31.7304049,39.9691358 29.8026675,42.1818182 27.3633063,42.1818182 Z M43.7269427,42.1818182 C41.3296291,42.1818182 39.3636364,39.9691358 39.3636364,37.2746348 C39.3636364,34.5801338 41.2875815,32.3636364 43.7269427,32.3636364 C46.1662374,32.3636364 48.1322301,34.5762529 48.090249,37.2746348 C48.090249,39.9691358 46.1662374,42.1818182 43.7269427,42.1818182 Z" id="Shape" fill="#FFFFFF"></path>
            </g>
        </g>
    </g>
</svg>