<svg width="15" height="14" viewBox="0 0 15 14" fill="none" xmlns="http://www.w3.org/2000/svg">
<mask id="path-1-outside-1_1_24" maskUnits="userSpaceOnUse" x="0" y="0.375" width="13" height="14" fill="black">
<rect fill="white" y="0.375" width="13" height="14"/>
<path fill-rule="evenodd" clip-rule="evenodd" d="M9.2429 1.375C9.18628 1.60527 9.15625 1.84601 9.15625 2.09375V2.375H4C2.89543 2.375 2 3.27043 2 4.375V10.375C2 11.4796 2.89543 12.375 4 12.375H9.59375C10.6983 12.375 11.5938 11.4796 11.5938 10.375V7.69735C11.776 7.73191 11.964 7.75 12.1562 7.75H12.25C12.3662 7.75 12.4809 7.74339 12.5938 7.73052V10.375C12.5938 12.0319 11.2506 13.375 9.59375 13.375H4C2.34315 13.375 1 12.0319 1 10.375V4.375C1 2.71815 2.34315 1.375 4 1.375L9.2429 1.375Z"/>
</mask>
<path fill-rule="evenodd" clip-rule="evenodd" d="M9.2429 1.375C9.18628 1.60527 9.15625 1.84601 9.15625 2.09375V2.375H4C2.89543 2.375 2 3.27043 2 4.375V10.375C2 11.4796 2.89543 12.375 4 12.375H9.59375C10.6983 12.375 11.5938 11.4796 11.5938 10.375V7.69735C11.776 7.73191 11.964 7.75 12.1562 7.75H12.25C12.3662 7.75 12.4809 7.74339 12.5938 7.73052V10.375C12.5938 12.0319 11.2506 13.375 9.59375 13.375H4C2.34315 13.375 1 12.0319 1 10.375V4.375C1 2.71815 2.34315 1.375 4 1.375L9.2429 1.375Z" fill="#0066CC"/>
<path d="M9.2429 1.375L9.34001 1.39888L9.37047 1.275H9.2429V1.375ZM9.15625 2.375V2.475H9.25625V2.375H9.15625ZM11.5938 7.69735L11.6124 7.5991L11.4937 7.5766V7.69735H11.5938ZM12.5938 7.73052H12.6938V7.61846L12.5824 7.63117L12.5938 7.73052ZM9.25625 2.09375C9.25625 1.85411 9.28529 1.6214 9.34001 1.39888L9.14579 1.35112C9.08727 1.58915 9.05625 1.8379 9.05625 2.09375H9.25625ZM9.25625 2.375V2.09375H9.05625V2.375H9.25625ZM9.15625 2.275H4V2.475H9.15625V2.275ZM4 2.275C2.8402 2.275 1.9 3.2152 1.9 4.375H2.1C2.1 3.32566 2.95066 2.475 4 2.475V2.275ZM1.9 4.375V10.375H2.1V4.375H1.9ZM1.9 10.375C1.9 11.5348 2.8402 12.475 4 12.475V12.275C2.95066 12.275 2.1 11.4243 2.1 10.375H1.9ZM4 12.475H9.59375V12.275H4V12.475ZM9.59375 12.475C10.7535 12.475 11.6938 11.5348 11.6938 10.375H11.4937C11.4937 11.4243 10.6431 12.275 9.59375 12.275V12.475ZM11.6938 10.375V7.69735H11.4937V10.375H11.6938ZM12.1562 7.65C11.9703 7.65 11.7885 7.63251 11.6124 7.5991L11.5751 7.7956C11.7634 7.83132 11.9577 7.85 12.1562 7.85V7.65ZM12.25 7.65H12.1562V7.85H12.25V7.65ZM12.5824 7.63117C12.4734 7.6436 12.3625 7.65 12.25 7.65V7.85C12.37 7.85 12.4885 7.84317 12.6051 7.82988L12.5824 7.63117ZM12.6938 10.375V7.73052H12.4937V10.375H12.6938ZM9.59375 13.475C11.3058 13.475 12.6938 12.0871 12.6938 10.375H12.4937C12.4937 11.9766 11.1954 13.275 9.59375 13.275V13.475ZM4 13.475H9.59375V13.275H4V13.475ZM0.9 10.375C0.9 12.0871 2.28792 13.475 4 13.475V13.275C2.39837 13.275 1.1 11.9766 1.1 10.375H0.9ZM0.9 4.375V10.375H1.1V4.375H0.9ZM4 1.275C2.28792 1.275 0.9 2.66292 0.9 4.375H1.1C1.1 2.77337 2.39837 1.475 4 1.475V1.275ZM9.2429 1.275L4 1.275V1.475L9.2429 1.475V1.275Z" fill="#0066CC" mask="url(#path-1-outside-1_1_24)"/>
<path d="M14.0781 1.375L8.07812 7.375" stroke="#0066CC" stroke-width="1.6"/>
<path d="M6.27543 5.5723L9.88082 9.1777C10.1958 9.49268 9.97272 10.0313 9.52727 10.0313L5.92188 10.0313C5.64573 10.0313 5.42187 9.80739 5.42187 9.53125L5.42187 5.92586C5.42187 5.4804 5.96044 5.25732 6.27543 5.5723Z" fill="#0066CC"/>
</svg>
