<?xml version="1.0" encoding="UTF-8"?>
<svg width="70px" height="70px" viewBox="0 0 70 70" version="1.1" xmlns="http://www.w3.org/2000/svg" xmlns:xlink="http://www.w3.org/1999/xlink">
    <title>Live Trading</title>
    <g id="Page-1" stroke="none" stroke-width="1" fill="none" fill-rule="evenodd">
        <g id="800x800" transform="translate(-48.000000, -271.000000)">
            <g id="Live-Trading" transform="translate(48.000000, 271.000000)">
                <rect id="Rectangle-Copy-2" fill="#22904D" fill-rule="nonzero" x="0" y="0" width="70" height="70" rx="5"></rect>
                <g id="Group" transform="translate(10.000000, 11.000000)" fill="#FFFFFF">
                    <g id="Asset-3-Copy" transform="translate(31.109147, 18.432370) rotate(-315.000000) translate(-31.109147, -18.432370) translate(18.109147, 5.432370)">
                        <polygon id="Path" points="12.8870192 2.41003015e-13 12.8870192 3.62426036 19.5865385 3.62426036 0.331730769 23.0068047 2.89903846 25.5872781 22.1538462 6.22647929 22.1538462 12.9531065 25.7596154 12.9531065 25.7596154 2.41003015e-13"></polygon>
                    </g>
                    <g id="Asset-3-Copy-2" transform="translate(18.513959, 29.740062) scale(-1, 1) rotate(-315.000000) translate(-18.513959, -29.740062) translate(5.513959, 16.740062)">
                        <polygon id="Path" points="12.8870192 2.41003015e-13 12.8870192 3.62426036 19.5865385 3.62426036 0.331730769 23.0068047 2.89903846 25.5872781 22.1538462 6.22647929 22.1538462 12.9531065 25.7596154 12.9531065 25.7596154 2.41003015e-13"></polygon>
                    </g>
                </g>
            </g>
        </g>
    </g>
</svg>