<?xml version="1.0" encoding="UTF-8"?>
<svg id="Layer_2" data-name="Layer 2" xmlns="http://www.w3.org/2000/svg" viewBox="0 0 434.48 83.87">
  <defs>
    <style>
      .cls-1 {
        fill: #f8991d;
      }

      .cls-2 {
        fill: #121212;
      }

      .cls-3 {
        fill: #111;
      }

      .cls-4 {
        fill: #7b7b7b;
      }
    </style>
  </defs>
  <g id="Layer_1-2" data-name="Layer 1">
    <g>
      <g>
        <path class="cls-1" d="M19.88,41.23l-3.41-3.32c-1.49,.74-3.23,1-5.77,1C.66,38.91,0,32.53,0,23.79v-4.68C.26,10.77,.92,4.56,10.71,4.56s10.44,6.21,10.71,14.55v4.68c0,4.2-.22,8.65-1.79,11.19l3.36,3.37-3.1,2.88Zm-5.46-11.41l.31,.31c.22-1.01,.35-2.23,.35-3.28l.04-9.09c0-2.53,.39-8.26-4.41-8.26s-4.41,5.72-4.41,8.26v9.09c0,2.71,.22,7.12,4.41,7.12,.61,0,1.14-.09,1.57-.22l-1.18-1.14,3.32-2.8Z"/>
        <path class="cls-1" d="M44.96,5.35h6.12V28.21c0,7.25-2.36,10.71-10.36,10.71s-10.44-3.45-10.44-10.71V5.35h6.12V27.68c0,3.15,.22,6.29,4.37,6.29s4.2-3.15,4.2-6.29V5.35Z"/>
        <path class="cls-1" d="M57.67,38.13l7.82-32.78h8.26l7.43,32.78h-6.56l-1.62-8.3h-7.17l-1.62,8.3h-6.56Zm9.13-13.11h5.24l-1.66-9.31c-.31-1.53-.44-3.02-.61-4.54-.04-.74-.13-1.49-.22-2.18h-.09c-.09,.7-.17,1.44-.22,2.18-.17,1.53-.31,3.02-.61,4.54l-1.84,9.31Z"/>
        <path class="cls-1" d="M102.46,5.35h6.12V38.13h-6.38l-4.76-11.67c-1.62-3.89-2.93-7.87-4.37-13.02h-.09c.22,2.71,.48,6.03,.66,9.35,.17,3.28,.31,6.55,.31,9.18v6.16h-6.12V5.35h6.34l4.76,11.93c1.57,3.8,2.88,7.69,4.37,13.02h.09c-.22-2.97-.44-6.16-.61-9.31s-.31-6.29-.31-9.22V5.35Z"/>
        <path class="cls-1" d="M115.57,5.35h20.41v4.81h-7.12v27.97h-6.12V10.16h-7.17V5.35Z"/>
        <path class="cls-2" d="M162.33,26.46c-.04,.61-.09,1.27-.13,1.88-.31,5.99-2.32,10.58-9.13,10.58-10.05,0-10.71-6.38-10.71-15.12v-4.68c.26-8.35,.92-14.55,10.71-14.55,5.46,.09,8.52,2.88,8.96,8.48,.09,.83,.17,1.66,.13,2.49h-6.03c-.26-2.1-.04-6.03-3.06-6.03-4.81,0-4.41,5.72-4.41,8.26v9.09c0,2.71,.22,7.12,4.41,7.12,3.37,0,2.97-5.42,3.1-7.52h6.16Z"/>
        <path class="cls-2" d="M170.19,19.12c.26-8.35,.92-14.55,10.71-14.55s10.44,6.21,10.71,14.55v4.68c0,8.74-.66,15.12-10.71,15.12s-10.71-6.38-10.71-15.12v-4.68Zm6.29,7.74c0,2.71,.22,7.12,4.41,7.12s4.41-4.5,4.41-7.65v-8.39c0-2.62,.13-8.43-4.41-8.43-4.81,0-4.41,5.72-4.41,8.26v9.09Z"/>
        <path class="cls-2" d="M215.11,5.35h6.12V38.13h-6.38l-4.76-11.67c-1.62-3.89-2.93-7.87-4.37-13.02h-.09c.22,2.71,.48,6.03,.66,9.35,.17,3.28,.31,6.55,.31,9.18v6.16h-6.12V5.35h6.34l4.76,11.93c1.57,3.8,2.88,7.69,4.37,13.02h.09c-.22-2.97-.44-6.16-.61-9.31-.18-3.15-.31-6.29-.31-9.22V5.35Z"/>
        <path class="cls-2" d="M245.08,5.35h6.12V38.13h-6.38l-4.76-11.67c-1.62-3.89-2.93-7.87-4.37-13.02h-.09c.22,2.71,.48,6.03,.66,9.35,.17,3.28,.31,6.55,.31,9.18v6.16h-6.12V5.35h6.34l4.76,11.93c1.57,3.8,2.88,7.69,4.37,13.02h.09c-.22-2.97-.44-6.16-.61-9.31-.18-3.15-.31-6.29-.31-9.22V5.35Z"/>
        <path class="cls-2" d="M260.24,38.13V5.35h17.22v4.81h-11.1v8.26h10.23v4.81h-10.23v10.09h11.1v4.81h-17.22Z"/>
        <path class="cls-2" d="M304.94,26.46c-.04,.61-.09,1.27-.13,1.88-.31,5.99-2.32,10.58-9.13,10.58-10.05,0-10.71-6.38-10.71-15.12v-4.68c.26-8.35,.92-14.55,10.71-14.55,5.46,.09,8.52,2.88,8.96,8.48,.09,.83,.17,1.66,.13,2.49h-6.03c-.26-2.1-.04-6.03-3.06-6.03-4.81,0-4.41,5.72-4.41,8.26v9.09c0,2.71,.22,7.12,4.41,7.12,3.37,0,2.97-5.42,3.1-7.52h6.16Z"/>
        <path class="cls-2" d="M310.88,5.35h20.41v4.81h-7.12v27.97h-6.12V10.16h-7.17V5.35Z"/>
      </g>
      <g>
        <path class="cls-4" d="M.29,83.13v-30.75H12.26c1.39,0,4.18,.62,5.94,3.49,1.31,2.13,1.68,5.54,1.68,10.62,0,6.07,0,13.08-4.72,15.83-1.27,.74-2.83,.82-4.26,.82H.29Zm8.24-4.51c5.13,0,5.45-2.71,5.45-11.6,0-7.26-.74-10.13-4.18-10.13h-3.77v21.73h2.5Z"/>
        <path class="cls-4" d="M27.96,65.29c.25-7.83,.86-13.65,10.04-13.65s9.8,5.82,10.05,13.65v4.39c0,8.2-.62,14.19-10.05,14.19s-10.04-5.99-10.04-14.19v-4.39Zm5.9,7.26c0,2.54,.2,6.68,4.14,6.68s4.14-4.22,4.14-7.17v-7.87c0-2.46,.12-7.91-4.14-7.91-4.51,0-4.14,5.37-4.14,7.75v8.53Z"/>
        <path class="cls-4" d="M74.58,72.18c-.04,.57-.08,1.19-.12,1.76-.29,5.62-2.17,9.92-8.57,9.92-9.43,0-10.05-5.99-10.05-14.19v-4.39c.25-7.83,.86-13.65,10.05-13.65,5.12,.08,8,2.71,8.4,7.95,.08,.78,.16,1.56,.12,2.34h-5.66c-.25-1.97-.04-5.66-2.87-5.66-4.51,0-4.14,5.37-4.14,7.75v8.53c0,2.54,.21,6.68,4.14,6.68,3.16,0,2.79-5.08,2.91-7.05h5.78Z"/>
        <path class="cls-4" d="M96.02,52.38h5.74v21.44c0,6.81-2.21,10.04-9.72,10.04s-9.8-3.24-9.8-10.04v-21.44h5.74v20.95c0,2.95,.21,5.9,4.1,5.9s3.94-2.95,3.94-5.9v-20.95Z"/>
        <path class="cls-4" d="M116.07,83.13h-5.74v-30.75h9.14l3.08,14.27c.49,2.34,.82,4.71,1.07,7.09h.08c.29-3.03,.49-5.08,.9-7.09l3.08-14.27h9.1v30.75h-5.74v-9.68c0-6.11,.12-12.22,.49-18.33h-.08l-6.15,28h-3.48l-6.03-28h-.21c.37,6.11,.49,12.22,.49,18.33v9.68Z"/>
        <path class="cls-4" d="M145.18,83.13v-30.75h16.15v4.51h-10.41v7.75h9.59v4.51h-9.59v9.47h10.41v4.51h-16.15Z"/>
        <path class="cls-4" d="M182.65,52.38h5.74v30.75h-5.99l-4.47-10.95c-1.52-3.65-2.75-7.38-4.1-12.22h-.08c.21,2.54,.45,5.66,.62,8.77,.16,3.08,.29,6.15,.29,8.61v5.78h-5.74v-30.75h5.94l4.47,11.19c1.48,3.57,2.71,7.22,4.1,12.22h.08c-.21-2.79-.41-5.78-.57-8.73s-.29-5.9-.29-8.65v-6.03Z"/>
        <path class="cls-4" d="M194.95,52.38h19.15v4.51h-6.68v26.24h-5.74v-26.24h-6.72v-4.51Z"/>
        <path class="cls-4" d="M215.95,83.13l7.34-30.75h7.75l6.97,30.75h-6.15l-1.52-7.79h-6.72l-1.52,7.79h-6.15Zm8.57-12.3h4.92l-1.56-8.73c-.29-1.44-.41-2.83-.57-4.26-.04-.7-.12-1.39-.21-2.05h-.08c-.08,.66-.16,1.35-.21,2.05-.16,1.44-.29,2.83-.57,4.26l-1.72,8.73Z"/>
        <path class="cls-4" d="M239.89,52.38h19.15v4.51h-6.68v26.24h-5.74v-26.24h-6.72v-4.51Z"/>
        <path class="cls-4" d="M265.6,83.13v-30.75h5.74v30.75h-5.74Z"/>
        <path class="cls-4" d="M279.74,65.29c.25-7.83,.86-13.65,10.04-13.65s9.8,5.82,10.04,13.65v4.39c0,8.2-.61,14.19-10.04,14.19s-10.04-5.99-10.04-14.19v-4.39Zm5.9,7.26c0,2.54,.21,6.68,4.14,6.68s4.14-4.22,4.14-7.17v-7.87c0-2.46,.12-7.91-4.14-7.91-4.51,0-4.14,5.37-4.14,7.75v8.53Z"/>
        <path class="cls-4" d="M321.89,52.38h5.74v30.75h-5.99l-4.47-10.95c-1.52-3.65-2.75-7.38-4.1-12.22h-.08c.21,2.54,.45,5.66,.62,8.77,.16,3.08,.29,6.15,.29,8.61v5.78h-5.74v-30.75h5.95l4.47,11.19c1.48,3.57,2.71,7.22,4.1,12.22h.08c-.21-2.79-.41-5.78-.57-8.73s-.29-5.9-.29-8.65v-6.03Z"/>
      </g>
      <path class="cls-1" d="M422.31,12.18c-3.63-3.84-8.12-6.84-13.03-8.97-5.13-2.14-10.47-3.2-16.02-3.2s-10.9,1.07-16.02,3.2c-4.91,2.14-9.4,5.13-13.25,8.97-3.63,3.63-6.62,8.12-8.76,13.03-2.13,5.13-3.2,10.47-3.2,16.02h9.61c0-4.27,1.07-8.33,2.56-12.18,1.71-3.84,3.85-7.26,6.84-10.04,2.78-2.99,6.2-5.13,10.04-6.84,3.85-1.71,7.91-2.56,12.18-2.35,4.27-.21,8.33,.64,12.18,2.35,3.84,1.71,7.26,3.84,10.25,6.84,2.77,2.78,4.91,6.2,6.62,10.04,1.71,3.85,2.56,7.9,2.56,12.18s-.86,8.33-2.56,12.39c-1.71,3.63-3.85,7.05-6.62,10.04-2.99,2.78-6.41,5.13-10.25,6.62-3.85,1.71-7.91,2.56-12.18,2.56v9.61c5.55,0,10.89-1.07,16.02-3.2,4.91-2.14,9.4-5.13,13.03-8.76,3.85-3.85,6.84-8.33,8.97-13.24,2.13-5.13,3.2-10.47,3.2-16.02s-1.07-10.9-3.2-16.02c-2.14-4.92-5.13-9.4-8.97-13.03Z"/>
      <path class="cls-1" d="M381.29,53.19c3.21,3.42,7.27,5.13,11.96,5.13s8.76-1.71,11.96-5.13c3.42-3.2,5.13-7.26,4.91-11.96h-9.61c0,2.13-.85,3.85-2.14,5.13-1.49,1.5-3.2,2.14-5.13,2.14-2.13,0-3.84-.64-5.13-2.14-1.5-1.28-2.14-2.99-2.14-5.13,0-1.92,.64-3.63,2.14-5.13,1.28-1.28,2.99-2.14,5.13-2.14v-9.61c-4.7,0-8.76,1.71-11.96,4.91-3.42,3.42-5.12,7.26-5.12,11.96s1.71,8.76,5.12,11.96Z"/>
      <path class="cls-3" d="M366.34,52.55c1.5,3.42,3.63,6.62,6.41,9.19,2.56,2.78,5.77,4.91,9.19,6.41,3.63,1.5,7.26,2.14,11.32,2.14s7.69-.64,11.32-2.14c3.42-1.49,6.62-3.63,9.19-6.41,2.78-2.57,4.91-5.77,6.2-9.19,1.71-3.63,2.35-7.26,2.35-11.32,0-3.85-.64-7.69-2.35-11.32-1.29-3.42-3.42-6.62-6.2-9.19-2.56-2.78-5.77-4.91-9.19-6.2-3.63-1.71-7.26-2.35-11.32-2.35v9.61c5.34,0,10.04,1.92,13.67,5.77,3.85,3.85,5.77,8.33,5.77,13.67s-1.92,10.04-5.77,13.67c-3.63,3.84-8.33,5.77-13.67,5.77s-10.04-1.92-13.67-5.77c-3.84-3.63-5.77-8.33-5.77-13.67h-9.61c0,4.06,.64,7.69,2.13,11.32Z"/>
    </g>
  </g>
</svg>