<?xml version="1.0" encoding="UTF-8"?>
<svg width="70px" height="70px" viewBox="0 0 70 70" version="1.1" xmlns="http://www.w3.org/2000/svg" xmlns:xlink="http://www.w3.org/1999/xlink">
    <title>outstanding-community-service</title>
    <g id="Page-1" stroke="none" stroke-width="1" fill="none" fill-rule="evenodd">
        <g id="800x800" transform="translate(-157.000000, -1033.000000)">
            <g id="outstanding-community-service" transform="translate(157.000000, 1033.000000)">
                <rect id="Rectangle-Copy-9" fill="#6527FD" fill-rule="nonzero" x="0" y="0" width="70" height="70" rx="5"></rect>
                <path d="M42.8744141,44.6255859 C40.9683496,42.7195898 38.6996387,41.308584 36.2243457,40.4544336 C38.875459,38.6284863 40.6171875,35.5726172 40.6171875,32.1171875 C40.6171875,26.538584 36.0786035,22 30.5,22 C24.9213965,22 20.3828125,26.538584 20.3828125,32.1171875 C20.3828125,35.5726172 22.124541,38.6284863 24.7757227,40.4544336 C22.3004297,41.308584 20.0317187,42.7195898 18.1256543,44.6255859 C14.8203418,47.9309668 13,52.3255859 13,57 L15.734375,57 C15.734375,48.8581934 22.3581934,42.234375 30.5,42.234375 C38.6418066,42.234375 45.265625,48.8581934 45.265625,57 L48,57 C48,52.3255859 46.1796582,47.9309668 42.8744141,44.6255859 Z M30.85,39.5 C26.7972236,39.5 23.5,36.2028444 23.5,32.15 C23.5,28.0971556 26.7972236,24.8 30.85,24.8 C34.9027764,24.8 38.2,28.0971556 38.2,32.15 C38.2,36.2028444 34.9027764,39.5 30.85,39.5 Z" id="Shape" fill="#FFFFFF" fill-rule="nonzero"></path>
                <path d="M35,18 C40.5228475,18 45,13.5228475 45,8 C45,13.5228475 49.4771525,18 55,18 C49.4771525,18 45,22.4771525 45,28 C45,22.4771525 40.5228475,18 35,18 Z" id="Path-Copy-4" fill="#FFFFFF"></path>
                <path d="M48,28 C50.7614237,28 53,25.7614237 53,23 C53,25.7614237 55.2385763,28 58,28 C55.2385763,28 53,30.2385763 53,33 C53,30.2385763 50.7614237,28 48,28 Z" id="Path-Copy-5" fill="#FFFFFF"></path>
                <path d="M51,11 C53.7614237,11 56,8.76142375 56,6 C56,8.76142375 58.2385763,11 61,11 C58.2385763,11 56,13.2385763 56,16 C56,13.2385763 53.7614237,11 51,11 Z" id="Path-Copy-6" fill="#FFFFFF"></path>
            </g>
        </g>
    </g>
</svg>