<?xml version="1.0" encoding="UTF-8"?>
<svg width="70px" height="70px" viewBox="0 0 70 70" version="1.1" xmlns="http://www.w3.org/2000/svg" xmlns:xlink="http://www.w3.org/1999/xlink">
    <title>Parallel Live Alg</title>
    <g id="Page-1" stroke="none" stroke-width="1" fill="none" fill-rule="evenodd">
        <g id="800x800" transform="translate(-383.000000, -271.000000)">
            <g id="Parallel-Live-Alg" transform="translate(383.000000, 271.000000)">
                <rect id="Rectangle-Copy-10" fill="#3D6CB6" fill-rule="nonzero" x="0" y="0" width="70" height="70" rx="5"></rect>
                <g id="Asset-11" transform="translate(14.000000, 12.000000)" fill="#FFFFFF">
                    <path d="M2.646,44.1 C1.18465455,44.1 0,42.9153454 0,41.454 L0,2.646 C0,1.18465455 1.18465455,0 2.646,0 C4.10734545,0 5.292,1.18465455 5.292,2.646 L5.292,41.454 C5.292,42.9153454 4.10734545,44.1 2.646,44.1 Z" id="Path"></path>
                    <path d="M11.823,40.7470093 C11.120667,40.7488654 10.4465621,40.4706903 9.9499359,39.9740641 C9.45330969,39.4774379 9.17513456,38.803333 9.17699068,38.101 L9.17699068,8.113 C9.17699068,6.65165455 10.3616546,5.467 11.823,5.467 C13.2843454,5.467 14.469,6.65165455 14.469,8.113 L14.469,38.101 C14.469,39.5623454 13.2843454,40.7470093 11.823,40.7470093 L11.823,40.7470093 Z" id="Path"></path>
                    <path d="M30.156,45.689 C28.6962508,45.6851535 27.5138465,44.5027492 27.51,43.043 L27.51,4.592 C27.51,3.13065455 28.6946546,1.946 30.156,1.946 C31.6173454,1.946 32.802,3.13065455 32.802,4.592 L32.802,43.043 C32.802,44.5043454 31.6173454,45.689 30.156,45.689 L30.156,45.689 Z" id="Path"></path>
                    <path d="M39.333,44.1 C37.8716546,44.1 36.687,42.9153454 36.687,41.454 L36.687,2.646 C36.687,1.18465455 37.8716546,0 39.333,0 C40.7943454,0 41.979,1.18465455 41.979,2.646 L41.979,41.454 C41.979,42.9153454 40.7943454,44.1 39.333,44.1 L39.333,44.1 Z" id="Path"></path>
                    <path d="M21,37.044 C19.5386546,37.044 18.354,35.8593454 18.354,34.398 L18.354,12.348 C18.354,10.8866546 19.5386546,9.702 21,9.702 C22.4613454,9.702 23.646,10.8866546 23.646,12.348 L23.646,34.398 C23.646,35.0997628 23.3672258,35.7727833 22.8710045,36.2690045 C22.3747833,36.7652258 21.7017628,37.044 21,37.044 L21,37.044 Z" id="Path"></path>
                </g>
            </g>
        </g>
    </g>
</svg>