<svg xmlns="http://www.w3.org/2000/svg" xmlns:xlink="http://www.w3.org/1999/xlink" width="1312.5" height="447" viewBox="0 0 1312.5 447"><defs><linearGradient id="a" x1="0.5" x2="0.5" y2="1" gradientUnits="objectBoundingBox"><stop offset="0" stop-color="#4285f4"/><stop offset="1" stop-color="#2765c9"/></linearGradient></defs><g transform="translate(-240 -1548)"><line x1="1312" transform="translate(240.5 1934.941)" fill="none" stroke="#8f9ca3" stroke-width="1"/><line x1="1221" transform="translate(331.5 1862.169)" fill="none" stroke="#d9e1eb" stroke-width="1"/><line x1="1221.5" transform="translate(331 1717.502)" fill="none" stroke="#d9e1eb" stroke-width="1"/><line x1="1221" transform="translate(331.5 1572.836)" fill="none" stroke="#d9e1eb" stroke-width="1"/><line x1="1221" transform="translate(331.5 1789.397)" fill="none" stroke="#d9e1eb" stroke-width="1"/><line x1="1221" transform="translate(331.5 1644.731)" fill="none" stroke="#d9e1eb" stroke-width="1"/><path d="M3,0H35a3,3,0,0,1,3,3v8a0,0,0,0,1,0,0H0a0,0,0,0,1,0,0V3A3,3,0,0,1,3,0Z" transform="translate(366 1924)" fill="url(#a)"/><path d="M3,0H35a3,3,0,0,1,3,3V185a0,0,0,0,1,0,0H0a0,0,0,0,1,0,0V3A3,3,0,0,1,3,0Z" transform="translate(898 1750)" fill="url(#a)"/><path d="M3,0H35a3,3,0,0,1,3,3V32a0,0,0,0,1,0,0H0a0,0,0,0,1,0,0V3A3,3,0,0,1,3,0Z" transform="translate(472 1903)" fill="url(#a)"/><path d="M3,0H35a3,3,0,0,1,3,3V225a0,0,0,0,1,0,0H0a0,0,0,0,1,0,0V3A3,3,0,0,1,3,0Z" transform="translate(1004 1710)" fill="url(#a)"/><path d="M3,0H35a3,3,0,0,1,3,3V55a0,0,0,0,1,0,0H0a0,0,0,0,1,0,0V3A3,3,0,0,1,3,0Z" transform="translate(579 1880)" fill="url(#a)"/><path d="M3,0H35a3,3,0,0,1,3,3V242a0,0,0,0,1,0,0H0a0,0,0,0,1,0,0V3A3,3,0,0,1,3,0Z" transform="translate(1111 1693)" fill="url(#a)"/><path d="M3,0H35a3,3,0,0,1,3,3V86a0,0,0,0,1,0,0H0a0,0,0,0,1,0,0V3A3,3,0,0,1,3,0Z" transform="translate(685 1849)" fill="url(#a)"/><path d="M3,0H35a3,3,0,0,1,3,3V262a0,0,0,0,1,0,0H0a0,0,0,0,1,0,0V3A3,3,0,0,1,3,0Z" transform="translate(1217 1673)" fill="url(#a)"/><path d="M3,0H35a3,3,0,0,1,3,3V138a0,0,0,0,1,0,0H0a0,0,0,0,1,0,0V3A3,3,0,0,1,3,0Z" transform="translate(792 1797)" fill="url(#a)"/><path d="M3,0H35a3,3,0,0,1,3,3V295a0,0,0,0,1,0,0H0a0,0,0,0,1,0,0V3A3,3,0,0,1,3,0Z" transform="translate(1323 1640)" fill="url(#a)"/><path d="M3,0H35a3,3,0,0,1,3,3V325a0,0,0,0,1,0,0H0a0,0,0,0,1,0,0V3A3,3,0,0,1,3,0Z" transform="translate(1430 1610)" fill="url(#a)"/><path d="M3,0H35a3,3,0,0,1,3,3V22a0,0,0,0,1,0,0H0a0,0,0,0,1,0,0V3A3,3,0,0,1,3,0Z" transform="translate(419 1913)" fill="url(#a)"/><path d="M3,0H35a3,3,0,0,1,3,3V200a0,0,0,0,1,0,0H0a0,0,0,0,1,0,0V3A3,3,0,0,1,3,0Z" transform="translate(951 1735)" fill="url(#a)"/><path d="M3,0H35a3,3,0,0,1,3,3V43a0,0,0,0,1,0,0H0a0,0,0,0,1,0,0V3A3,3,0,0,1,3,0Z" transform="translate(526 1892)" fill="url(#a)"/><path d="M3,0H35a3,3,0,0,1,3,3V231a0,0,0,0,1,0,0H0a0,0,0,0,1,0,0V3A3,3,0,0,1,3,0Z" transform="translate(1057 1704)" fill="url(#a)"/><path d="M3,0H35a3,3,0,0,1,3,3V65a0,0,0,0,1,0,0H0a0,0,0,0,1,0,0V3A3,3,0,0,1,3,0Z" transform="translate(632 1870)" fill="url(#a)"/><path d="M3,0H35a3,3,0,0,1,3,3V252a0,0,0,0,1,0,0H0a0,0,0,0,1,0,0V3A3,3,0,0,1,3,0Z" transform="translate(1164 1683)" fill="url(#a)"/><path d="M3,0H35a3,3,0,0,1,3,3V121a0,0,0,0,1,0,0H0a0,0,0,0,1,0,0V3A3,3,0,0,1,3,0Z" transform="translate(738 1814)" fill="url(#a)"/><path d="M3,0H35a3,3,0,0,1,3,3V277a0,0,0,0,1,0,0H0a0,0,0,0,1,0,0V3A3,3,0,0,1,3,0Z" transform="translate(1270 1658)" fill="url(#a)"/><path d="M3,0H35a3,3,0,0,1,3,3V163a0,0,0,0,1,0,0H0a0,0,0,0,1,0,0V3A3,3,0,0,1,3,0Z" transform="translate(845 1772)" fill="url(#a)"/><path d="M3,0H35a3,3,0,0,1,3,3V308a0,0,0,0,1,0,0H0a0,0,0,0,1,0,0V3A3,3,0,0,1,3,0Z" transform="translate(1377 1627)" fill="url(#a)"/><path d="M3,0H35a3,3,0,0,1,3,3V349a0,0,0,0,1,0,0H0a0,0,0,0,1,0,0V3A3,3,0,0,1,3,0Z" transform="translate(1483 1586)" fill="url(#a)"/><text transform="translate(897 1991)" fill="#313131" font-size="14" font-family="Norpeth-DemiBold, Norpeth" font-weight="300"><tspan x="-18.935" y="0">Month</tspan></text><text transform="translate(253 1689) rotate(-90)" fill="#313131" font-size="14" font-family="Norpeth-DemiBold, Norpeth" font-weight="300"><tspan x="-44.254" y="0">Revenue Share</tspan></text><text transform="translate(384 1956)" fill="#313131" font-size="14" font-family="Norpeth-DemiBold, Norpeth" font-weight="300"><tspan x="-2.401" y="0">1</tspan></text><text transform="translate(788 1956)" fill="#313131" font-size="14" font-family="Norpeth-DemiBold, Norpeth" font-weight="300"><tspan x="-3.836" y="0">9</tspan></text><text transform="translate(586 1956)" fill="#313131" font-size="14" font-family="Norpeth-DemiBold, Norpeth" font-weight="300"><tspan x="-3.521" y="0">5</tspan></text><text transform="translate(1004 1956)" fill="#313131" font-size="14" font-family="Norpeth-DemiBold, Norpeth" font-weight="300"><tspan x="-5.985" y="0">13</tspan></text><text transform="translate(1224 1956)" fill="#313131" font-size="14" font-family="Norpeth-DemiBold, Norpeth" font-weight="300"><tspan x="-5.88" y="0">17</tspan></text><text transform="translate(433 1956)" fill="#313131" font-size="14" font-family="Norpeth-DemiBold, Norpeth" font-weight="300"><tspan x="-3.584" y="0">2</tspan></text><text transform="translate(841 1956)" fill="#313131" font-size="14" font-family="Norpeth-DemiBold, Norpeth" font-weight="300"><tspan x="-6.069" y="0">10</tspan></text><text transform="translate(637 1956)" fill="#313131" font-size="14" font-family="Norpeth-DemiBold, Norpeth" font-weight="300" opacity="0.6"><tspan x="-3.836" y="0">6</tspan></text><text transform="translate(1059 1956)" fill="#313131" font-size="14" font-family="Norpeth-DemiBold, Norpeth" font-weight="300"><tspan x="-6.097" y="0">14</tspan></text><text transform="translate(1279 1956)" fill="#313131" font-size="14" font-family="Norpeth-DemiBold, Norpeth" font-weight="300"><tspan x="-6.391" y="0">18</tspan></text><text transform="translate(1446 1956)" fill="#313131" font-size="14" font-family="Norpeth-DemiBold, Norpeth" font-weight="300"><tspan x="-5.985" y="0">21</tspan></text><text transform="translate(484 1956)" fill="#313131" font-size="14" font-family="Norpeth-DemiBold, Norpeth" font-weight="300"><tspan x="-3.584" y="0">3</tspan></text><text transform="translate(895 1956)" fill="#313131" font-size="14" font-family="Norpeth-DemiBold, Norpeth" font-weight="300"><tspan x="-4.802" y="0">11</tspan></text><text transform="translate(687 1956)" fill="#313131" font-size="14" font-family="Norpeth-DemiBold, Norpeth" font-weight="300"><tspan x="-3.479" y="0">7</tspan></text><text transform="translate(1114 1956)" fill="#313131" font-size="14" font-family="Norpeth-DemiBold, Norpeth" font-weight="300"><tspan x="-5.922" y="0">15</tspan></text><text transform="translate(1334 1956)" fill="#313131" font-size="14" font-family="Norpeth-DemiBold, Norpeth" font-weight="300"><tspan x="-6.237" y="0">19</tspan></text><text transform="translate(1502 1956)" fill="#313131" font-size="14" font-family="Norpeth-DemiBold, Norpeth" font-weight="300"><tspan x="-7.168" y="0">22</tspan></text><text transform="translate(535 1956)" fill="#313131" font-size="14" font-family="Norpeth-DemiBold, Norpeth" font-weight="300"><tspan x="-3.696" y="0">4</tspan></text><text transform="translate(949 1956)" fill="#313131" font-size="14" font-family="Norpeth-DemiBold, Norpeth" font-weight="300"><tspan x="-5.985" y="0">12</tspan></text><text transform="translate(737 1956)" fill="#313131" font-size="14" font-family="Norpeth-DemiBold, Norpeth" font-weight="300"><tspan x="-3.99" y="0">8</tspan></text><text transform="translate(1169 1956)" fill="#313131" font-size="14" font-family="Norpeth-DemiBold, Norpeth" font-weight="300"><tspan x="-6.237" y="0">16</tspan></text><text transform="translate(1390 1956)" fill="#313131" font-size="14" font-family="Norpeth-DemiBold, Norpeth" font-weight="300"><tspan x="-7.252" y="0">20</tspan></text><text transform="translate(338 1919)" fill="#313131" font-size="14" font-family="Norpeth-DemiBold, Norpeth" font-weight="300"><tspan x="-7.273" y="0">$0</tspan></text><text transform="translate(331 1848)" fill="#313131" font-size="14" font-family="Norpeth-DemiBold, Norpeth" font-weight="300"><tspan x="0" y="0">$250</tspan></text><text transform="translate(331 1777)" fill="#313131" font-size="14" font-family="Norpeth-DemiBold, Norpeth" font-weight="300"><tspan x="0" y="0">$500</tspan></text><text transform="translate(331 1706)" fill="#313131" font-size="14" font-family="Norpeth-DemiBold, Norpeth" font-weight="300"><tspan x="0" y="0">$750</tspan></text><text transform="translate(331 1633)" fill="#313131" font-size="14" font-family="Norpeth-DemiBold, Norpeth" font-weight="300"><tspan x="0" y="0">$1,000</tspan></text><text transform="translate(331 1561)" fill="#313131" font-size="14" font-family="Norpeth-DemiBold, Norpeth" font-weight="300"><tspan x="0" y="0">$1.250</tspan></text></g></svg>