<?xml version="1.0" encoding="UTF-8"?>
<svg width="70px" height="70px" viewBox="0 0 70 70" version="1.1" xmlns="http://www.w3.org/2000/svg" xmlns:xlink="http://www.w3.org/1999/xlink">
    <title>popular</title>
    <g id="Page-1" stroke="none" stroke-width="1" fill="none" fill-rule="evenodd">
        <g id="800x800" transform="translate(-383.000000, -366.000000)">
            <g id="popular" transform="translate(383.000000, 366.000000)">
                <rect id="Rectangle-Copy-11" fill="#692F91" fill-rule="nonzero" x="0" y="0" width="70" height="70" rx="5"></rect>
                <g id="Asset-12" transform="translate(13.000000, 11.000000)" fill="#FFFFFF">
                    <circle id="Oval" cx="9.48169014" cy="43.5739437" r="1.12816901"></circle>
                    <path d="M42.1225352,35.9619718 C42.3616693,35.5826648 42.4870449,35.1427505 42.4838028,34.6943662 L42.4838028,34.2950704 C42.480309,32.9848976 41.4172197,31.9246432 40.1070423,31.9246479 L32.7359155,31.9246479 C32.5786091,31.9262415 32.4217164,31.9410827 32.2669014,31.9690141 L33.5915493,25.3077465 C33.7829494,24.3663311 33.8044142,23.3982696 33.6549296,22.4492958 C33.4077465,20.921831 32.5964789,19.1028169 30.1753521,19.1028169 C29.8306743,19.1039763 29.5366395,19.3525693 29.478169,19.6922535 L29.015493,22.4239437 C28.8417352,23.4613525 28.5917625,24.4845459 28.2676056,25.4852113 C27.3992958,28.1091549 26.3028169,29.4591549 24.3633803,30.2894366 C23.4507042,30.6887324 22.6774648,31.056338 22.3732394,31.1640845 L19.4514085,31.1640845 L19.4514085,30.6 C19.4514085,30.2079556 19.1335937,29.8901408 18.7415493,29.8901408 L13.943662,29.8901408 L13.943662,29.1549296 C13.9436775,28.7653471 13.6297078,28.4485488 13.2401408,28.4450704 L1.34366197,28.4450704 C0.951617586,28.4450704 0.633802817,28.7628852 0.633802817,29.1549296 L0.633802817,33.3570423 C0.668356375,33.7214972 0.974403664,33.9999009 1.34049296,33.9999009 C1.70658225,33.9999009 2.01262954,33.7214972 2.0471831,33.3570423 L2.0471831,29.8330986 L12.5366197,29.8330986 L12.5366197,46.5021127 L2.0471831,46.5021127 L2.0471831,35.6894366 C2.07263503,35.4209814 1.94378147,35.1612865 1.71461336,35.0191668 C1.48544526,34.8770471 1.19554066,34.8770471 0.966372552,35.0191668 C0.737204445,35.1612865 0.608350881,35.4209814 0.633802817,35.6894366 L0.633802817,47.2119718 C0.637281232,47.6015388 0.954079461,47.9155085 1.34366197,47.915493 L13.2464789,47.915493 C13.6325454,47.9120147 13.9436776,47.5980541 13.943662,47.2119718 L13.943662,46.4450704 L18.7415493,46.4450704 C19.1300933,46.4450704 19.4450704,46.1300933 19.4450704,45.7415493 L19.4450704,45.4056338 L22.271831,45.4056338 L23.7929577,46.6352113 C25.0719058,47.6753597 26.6697907,48.2437949 28.3183099,48.2450704 L32.6471831,48.2450704 C32.7400341,48.2513702 32.8332053,48.2513702 32.9260563,48.2450704 L37.9964789,48.2450704 C38.9020902,48.2657915 39.7499488,47.8017454 40.22061,47.0277691 C40.6912712,46.2537929 40.7132132,45.2875002 40.278169,44.4929577 C41.5423609,44.3137127 42.4839154,43.2345672 42.4901408,41.9577465 C42.4843856,41.4601084 42.3322914,40.9751701 42.0528169,40.5633803 C42.8351918,40.1505714 43.3235747,39.3374138 43.3204377,38.4528169 L43.3204377,38.028169 C43.3212854,37.1742575 42.8640064,36.3855117 42.1225352,35.9619718 Z M40.9690141,39.3908451 L32.7295775,39.3908451 C32.2024561,39.3873884 31.7759919,38.9609242 31.7725352,38.4338028 L31.7725352,38.028169 C31.7759919,37.5010476 32.2024561,37.0745834 32.7295775,37.0711268 L40.9690141,37.0711268 C41.4961355,37.0745834 41.9225997,37.5010476 41.9260563,38.028169 L41.9260563,38.4274648 C41.9260563,38.9570597 41.4985975,39.3873609 40.9690141,39.3908451 L40.9690141,39.3908451 Z M40.1070423,33.3570211 C40.360281,33.355354 40.6037278,33.4547713 40.7833926,33.6332463 C40.9630574,33.8117212 41.0640845,34.0545021 41.0640845,34.3077465 L41.0640845,34.7070423 C41.0640845,35.2356021 40.6356021,35.6640845 40.1070423,35.6640845 L32.7359155,35.6640845 C32.2087941,35.6606279 31.7823299,35.2341637 31.7788732,34.7070423 L31.7788732,34.3267606 C31.8232394,34.1556338 31.8612676,33.9908451 31.8992958,33.8450704 C32.0691923,33.5428715 32.3892337,33.3561807 32.7359155,33.3570211 L40.1070423,33.3570211 Z M24.7183099,45.5387324 L23.0070423,44.1507042 C22.8793089,44.0484608 22.7206559,43.992597 22.5570423,43.9922535 L19.4514085,43.9922535 L19.4514085,41.9577465 C19.4168549,41.5932915 19.1108076,41.3148878 18.7447183,41.3148878 C18.378629,41.3148878 18.0725817,41.5932915 18.0380282,41.9577465 L18.0380282,45.0316901 L13.943662,45.0316901 L13.943662,31.3098592 L18.0316901,31.3098592 L18.0316901,39.6 L18.0316901,39.6 C18.0062382,39.8684553 18.1350918,40.1281502 18.3642599,40.2702699 C18.593428,40.4123896 18.8833326,40.4123896 19.1125007,40.2702699 C19.3416688,40.1281502 19.4705224,39.8684553 19.4450704,39.6 L19.4450704,39.6 L19.4450704,32.5838028 L22.5190141,32.5838028 C22.6214206,32.5816708 22.7224971,32.5601651 22.8169014,32.5204225 C22.8169014,32.5204225 23.7232394,32.1021127 24.9147887,31.5887324 C27.2471831,30.593662 28.6098592,28.9521127 29.6049296,25.9288732 C29.9576535,24.8625161 30.2309359,23.7715053 30.4225352,22.6647887 L30.7774648,20.5795775 C31.6077465,20.7760563 32.0450704,21.4288732 32.2732394,22.6774648 C32.393133,23.4606126 32.3738226,24.2587776 32.2161972,25.0352113 L30.7014085,32.6408451 C30.7044862,32.6554737 30.7044862,32.6705827 30.7014085,32.6852113 C30.7014085,32.6852113 30.6633803,32.9640845 30.5683099,33.3823944 C30.4737207,33.608719 30.4138897,33.8480427 30.3908451,34.0922535 C29.7887324,36.1267606 28.3690141,39.5239437 25.0605634,39.5239437 C24.668519,39.5239437 24.3507043,39.8417585 24.3507043,40.2338028 C24.3507043,40.6258472 24.668519,40.9436619 25.0605634,40.943662 C27.2535211,40.943662 29.0788732,39.8091549 30.3908451,37.6605634 C30.3705972,37.7842005 30.3600018,37.9092258 30.3591549,38.034507 L30.3591549,38.4338028 C30.3587803,39.0872612 30.6296192,39.7115679 31.1070423,40.1577465 C30.6278374,40.6341081 30.3586195,41.2820562 30.3591549,41.9577465 C30.3562552,42.6638664 30.6479817,43.3392018 31.1640845,43.8211268 C30.6511589,44.3052835 30.360058,44.9791706 30.3591549,45.684507 C30.3595705,46.0808645 30.4529136,46.4716031 30.6316901,46.8253521 L28.3246479,46.8253521 C27.0116274,46.8166382 25.7403379,46.363085 24.7183099,45.5387324 Z M38.028169,46.8380282 L32.9577465,46.8380282 C32.3206744,46.8380282 31.8042254,46.3215792 31.8042254,45.684507 C31.8042254,45.0474349 32.3206744,44.5309859 32.9577465,44.5309859 L38.028169,44.5309859 C38.6652411,44.5309859 39.1816901,45.0474349 39.1816901,45.684507 C39.1816901,46.3215792 38.6652411,46.8380282 38.028169,46.8380282 L38.028169,46.8380282 Z M39.9295775,43.0985915 L32.9577465,43.0985915 C32.3520735,43.0537269 31.883568,42.5492338 31.883568,41.9419014 C31.883568,41.3345691 32.3520735,40.8300759 32.9577465,40.7852113 L39.9295775,40.7852113 C40.5352504,40.8300759 41.0037559,41.3345691 41.0037559,41.9419014 C41.0037559,42.5492338 40.5352504,43.0537269 39.9295775,43.0985915 L39.9295775,43.0985915 Z" id="Shape" fill-rule="nonzero"></path>
                    <path d="M3.66971831,13.8422535 L3.12464789,17.0492958 C3.02126906,17.557958 3.22749933,18.0797454 3.65070423,18.3802817 C3.87546717,18.5438241 4.14598169,18.6325174 4.42394366,18.633827 C4.64440568,18.6351163 4.86189461,18.582919 5.05774648,18.4816901 L7.93521127,16.9669014 L10.7746479,18.45 C11.2201417,18.6738112 11.7535706,18.6285332 12.1549681,18.332837 C12.5563656,18.0371408 12.7577417,17.5411125 12.6760563,17.0492958 L12.1309859,13.8422535 L14.4570423,11.5732394 C14.8162647,11.2209307 14.9448748,10.6955215 14.7889928,10.2171251 C14.6331109,9.73872882 14.2196526,9.38994856 13.721831,9.31690141 L10.5528169,8.87323944 L9.10774648,5.95774648 C8.88693274,5.50436947 8.42682622,5.21668452 7.92253521,5.21668452 C7.4182442,5.21668452 6.95813768,5.50436947 6.73732394,5.95774648 L5.29225352,8.87323944 L2.07887324,9.34225352 C1.58105166,9.41530067 1.16759333,9.76408093 1.01171138,10.2424772 C0.855829439,10.7208736 0.984439484,11.2462829 1.34366197,11.5985915 L3.66971831,13.8422535 Z M5.57112676,10.2422535 C5.99446962,10.1689467 6.35596433,9.89487233 6.54084507,9.50704225 L7.92253521,6.71197183 L9.30422535,9.50704225 C9.49725249,9.89658387 9.86913567,10.1666137 10.2992958,10.2295775 L13.3795775,10.6795775 L11.1485915,12.8661972 C10.838521,13.171837 10.6966454,13.6092867 10.7683099,14.0387324 L11.2943662,17.1126761 L8.53732394,15.6676056 C8.15340099,15.4614 7.69166944,15.4614 7.30774648,15.6676056 L4.55070423,17.1126761 L5.07042254,14.0387324 C5.14208697,13.6092867 5.00021138,13.171837 4.69014085,12.8661972 L2.46549296,10.6922535 L5.57112676,10.2422535 Z" id="Shape" fill-rule="nonzero"></path>
                    <path d="M18.5640845,8.65140845 L18.0126761,11.8584507 C17.9302109,12.357374 18.1362229,12.8601415 18.5450704,13.1577465 C18.9523443,13.4564743 19.4953847,13.4934997 19.9394366,13.2528169 L22.8169014,11.7443662 L25.6943662,13.2528169 C25.8881605,13.3601041 26.1066859,13.4147355 26.328169,13.4112676 C26.7128457,13.4004744 27.073814,13.2229284 27.3171702,12.924817 C27.5605264,12.6267056 27.6622122,12.2375004 27.5957746,11.8584507 L27.0507042,8.65140845 L29.3767606,6.38239437 C29.7359831,6.03008567 29.8645931,5.50467638 29.7087112,5.02628007 C29.5528292,4.54788375 29.1393709,4.19910349 28.6415493,4.12605634 L25.421831,3.65704225 L24.0021127,0.735211268 C23.7778912,0.285990514 23.3189717,0.00214285637 22.8169014,0.00214285637 C22.3148312,0.00214285637 21.8559116,0.285990514 21.6316901,0.735211268 L20.1866197,3.65704225 L16.9669014,4.12605634 C16.4701735,4.20107521 16.058625,4.55062528 15.9042027,5.02866316 C15.7497803,5.50670104 15.87906,6.03095682 16.2380282,6.38239437 L18.5640845,8.65140845 Z M20.465493,5.05140845 C20.8973973,4.988174 21.2699981,4.71524987 21.4605634,4.32253521 L22.8169014,1.53380282 L24.1985915,4.32253521 C24.3842914,4.72259062 24.7577487,5.00327821 25.193662,5.07042254 L28.2739437,5.51408451 L26.0429577,7.6943662 C25.7328872,8.00000597 25.5910116,8.4374557 25.6626761,8.86690141 L26.1887324,11.934507 L23.4507042,10.4640845 C23.0659415,10.2612446 22.6058895,10.2612446 22.2211268,10.4640845 L19.4450704,11.915493 L19.9711268,8.87323944 C20.0427912,8.44379372 19.9009156,8.006344 19.5908451,7.70070423 L17.3598592,5.49507042 L20.465493,5.05140845 Z" id="Shape" fill-rule="nonzero"></path>
                    <path d="M44.6007042,10.2169014 C44.4454256,9.73656589 44.0294863,9.38707839 43.5295775,9.31690141 L40.3098592,8.87323944 L38.8711268,5.95774648 C38.6481921,5.50501779 38.1873881,5.21828602 37.6827465,5.21828602 C37.1781049,5.21828602 36.7173008,5.50501779 36.4943662,5.95774648 L35.0556338,8.87323944 L31.8359155,9.34225352 C31.3380939,9.41530067 30.9246356,9.76408093 30.7687536,10.2424772 C30.6128717,10.7208736 30.7414817,11.2462829 31.1007042,11.5985915 L33.4330986,13.8739437 L32.8816901,17.0429577 C32.8000047,17.5347745 33.0013808,18.0308028 33.4027784,18.326499 C33.8041759,18.6221952 34.3376047,18.6674732 34.7830986,18.443662 L37.6669014,16.9288732 L40.5633803,18.45 C41.0036917,18.6934539 41.5439158,18.6664427 41.9577465,18.3802817 C42.3738336,18.0749637 42.5722699,17.5540684 42.4647887,17.0492958 L41.9133803,13.8802817 L44.2457746,11.6049296 C44.6271081,11.2525237 44.7660654,10.7091013 44.6007042,10.2169014 Z M40.9119718,12.8661972 C40.5990387,13.1700622 40.4566664,13.6090435 40.5316901,14.0387324 L41.0577465,17.1126761 L38.3007042,15.6549296 C37.9052967,15.4408044 37.4285061,15.4408044 37.0330986,15.6549296 L34.3077465,17.1126761 L34.8591549,14.0387324 C34.9364861,13.6088838 34.7937683,13.1688372 34.4788732,12.8661972 L32.2478873,10.6922535 L35.334507,10.2422535 C35.7578499,10.1689467 36.1193446,9.89487233 36.3042254,9.50704225 L37.6859155,6.71197183 L39.0612676,9.50704225 C39.2559882,9.89514984 39.6270173,10.1645596 40.056338,10.2295775 L43.1429577,10.6795775 L40.9119718,12.8661972 Z" id="Shape" fill-rule="nonzero"></path>
                </g>
            </g>
        </g>
    </g>
</svg>