<?xml version="1.0" encoding="UTF-8"?>
<svg width="70px" height="70px" viewBox="0 0 70 70" version="1.1" xmlns="http://www.w3.org/2000/svg" xmlns:xlink="http://www.w3.org/1999/xlink">
    <title>Private</title>
    <g id="Page-1" stroke="none" stroke-width="1" fill="none" fill-rule="evenodd">
        <g id="800x800" transform="translate(-383.000000, -836.000000)">
            <g id="Private" transform="translate(383.000000, 836.000000)">
                <rect id="Rectangle-Copy-17" fill="#24744B" fill-rule="nonzero" x="0" y="0" width="70" height="70" rx="5"></rect>
                <g id="Asset-1" transform="translate(18.000000, 9.000000)" fill="#FFFFFF">
                    <polygon id="Path" points="13.356875 12.044375 17.294375 9.19625 21.231875 12.053125 19.6875 7.4375 23.625 4.6025 18.781875 4.6025 17.28125 0 15.785 4.61125 10.9375 4.61125 14.875 7.4375"></polygon>
                    <path d="M33.4075,6.58860802 L23.463125,6.58860802 L21.179375,8.238125 L21.4375,8.96875 L32.1475,8.96875 L32.1475,40.25 L17.2725,48.2825 L2.415,40.25 L2.415,8.96875 L13.39625,8.96875 L13.636875,8.238125 L11.375,6.58860802 L1.26,6.58860802 C0.587013527,6.57867234 0.0283637863,7.10628599 0,7.77875 L0,40.971875 C0.0178060962,41.4064955 0.26636566,41.798519 0.651875,42 L16.73875,50.684375 C17.1059613,50.8765446 17.5440387,50.8765446 17.91125,50.684375 L33.95875,42 C34.3343012,41.7949585 34.5663889,41.3997366 34.5625,40.971875 L34.5625,7.77875 C34.5719693,7.46640673 34.4544755,7.1635553 34.2368361,6.93932082 C34.0191968,6.71508634 33.7199867,6.58860802 33.4075,6.58860802 Z" id="Path"></path>
                    <polygon id="Path" points="6.7025 22.631875 6.7025 26.158125 17.28125 33.210625 27.86 26.158125 27.86 22.631875 17.28125 29.684375"></polygon>
                </g>
            </g>
        </g>
    </g>
</svg>