<?xml version="1.0" encoding="UTF-8"?>
<svg width="70px" height="70px" viewBox="0 0 70 70" version="1.1" xmlns="http://www.w3.org/2000/svg" xmlns:xlink="http://www.w3.org/1999/xlink">
    <title>researcher</title>
    <g id="Page-1" stroke="none" stroke-width="1" fill="none" fill-rule="evenodd">
        <g id="800x800" transform="translate(-383.000000, -176.000000)" fill-rule="nonzero">
            <g id="researcher" transform="translate(383.000000, 176.000000)">
                <rect id="Rectangle-Copy-12" fill="#353485" x="0" y="0" width="70" height="70" rx="5"></rect>
                <g id="Asset-13" transform="translate(15.000000, 10.000000)" fill="#FFFFFF">
                    <path d="M33.5032258,17.0387097 C32.1813767,17.0396181 30.8922356,17.4497994 29.8129032,18.2129032 L24.9032258,16.2774194 C25.1394824,15.5566781 24.8481319,14.7681608 24.2,14.3741935 L30.1806452,3.99354839 L23.2709677,0 L17.283871,10.3612903 C16.918446,10.1475958 16.4825747,10.0894101 16.0738913,10.1997668 C15.6652078,10.3101235 15.3178688,10.5797991 15.1096774,10.9483871 L9.12903226,21.2903226 C8.90959764,21.6554415 8.84818854,22.0941352 8.95893339,22.5054733 C9.06967824,22.9168113 9.34304103,23.2653741 9.71612903,23.4709677 L8.11612903,26.2580645 L15.0193548,30.2387097 L16.6193548,27.4774194 L16.6193548,27.4774194 C16.9843581,27.6929144 17.4208413,27.7521081 17.8300543,27.6416084 C18.2392674,27.5311088 18.5866277,27.2602541 18.7935484,26.8903226 L22.2193548,20.9548387 L27.1354839,22.9419355 C26.9791174,24.6620138 27.5526761,26.3686437 28.716129,27.6451613 L22.916129,42.5806452 L11.9483871,42.5806452 L11.9483871,40.1935484 L15.1419355,40.1935484 C15.5729644,40.2022441 15.9892634,40.0366303 16.2965282,39.7342234 C16.603793,39.4318166 16.7760196,39.0182096 16.7741935,38.5870968 L16.7741935,35.3612903 L2.38709677,35.3612903 L2.38709677,38.5870968 C2.39064977,39.4682318 3.10595457,40.1806523 3.98709677,40.1806452 L7.21290323,40.1806452 L7.21290323,42.5806452 L0,42.5806452 L0,46.5677419 C0.0709677419,47.9096774 0.922580645,49.1483871 3.22580645,48.9612903 L3.22580645,49.7483871 L4.78709677,49.7483871 L4.78709677,48.9483871 L28.7225806,48.9483871 L28.7225806,49.7354839 L30.3225806,49.7354839 L30.3225806,48.9483871 C32.5096774,49.1870968 33.516129,47.8709677 33.516129,46.5548387 L33.516129,42.5806452 L29.4387097,42.5806452 L34.4709677,29.7419355 C37.7768219,29.2448215 40.138521,26.2804052 39.884326,22.9470617 C39.630131,19.6137183 36.8462328,17.0416963 33.5032258,17.0516129 L33.5032258,17.0387097 Z M3.98709677,38.5870968 L3.98709677,36.9870968 L15.1483871,36.9870968 L15.1483871,38.5870968 L10.3612903,38.5870968 L10.3612903,42.5806452 L8.77419355,42.5806452 L8.77419355,38.5870968 L3.98709677,38.5870968 Z M23.8709677,2.18064516 L28.0129032,4.57419355 L26.8193548,6.6516129 L22.6516129,4.25806452 L23.8709677,2.18064516 Z M21.8580645,5.63225806 L26,8.03225806 L22.8064516,13.5483871 L19.8709677,11.8580645 L18.6645161,11.1612903 L21.8580645,5.63225806 Z M15.2258065,26.6774194 L14.4322581,28.0580645 L10.3225806,25.6645161 L11.116129,24.283871 L15.2258065,26.6774194 Z M17.4129032,26.0967742 L10.5096774,22.1096774 L16.4903226,11.7483871 L23.3935484,15.7354839 L17.4129032,26.0967742 Z M31.9032258,44.1612903 L31.9032258,46.5483871 C31.8997172,46.9851902 31.5464805,47.3384269 31.1096774,47.3419355 L2.38709677,47.3419355 C1.95029368,47.3384269 1.59705702,46.9851902 1.59354839,46.5483871 L1.59354839,44.1612903 L31.9032258,44.1612903 Z M33.3225806,28.2193548 L27.7032258,42.5806452 L24.6322581,42.5806452 L30.5741935,27.2580645 C28.9740806,25.997376 28.3086171,23.885809 28.8967742,21.9354839 L23.0516129,19.5741935 L24.1225806,17.6387097 L30.0645161,20.0193548 C30.9883788,19.1403586 32.2088405,18.6406601 33.483871,18.6193548 C35.1964409,18.6481666 36.7635499,19.5884349 37.5948831,21.0859698 C38.4262164,22.5835047 38.3954746,24.410795 37.514238,25.8795182 C36.6330013,27.3482414 35.0351506,28.2352634 33.3225806,28.2064516 L33.3225806,28.2193548 Z" id="Shape"></path>
                </g>
            </g>
        </g>
    </g>
</svg>