<?xml version="1.0" encoding="UTF-8"?>
<svg width="70px" height="70px" viewBox="0 0 70 70" version="1.1" xmlns="http://www.w3.org/2000/svg" xmlns:xlink="http://www.w3.org/1999/xlink">
    <title>silver-medal</title>
    <defs>
        <rect id="path-1" x="0" y="0" width="70" height="70" rx="5"></rect>
    </defs>
    <g id="Page-1" stroke="none" stroke-width="1" fill="none" fill-rule="evenodd">
        <g id="800x800" transform="translate(-689.000000, -958.000000)">
            <g id="silver-medal" transform="translate(689.000000, 958.000000)">
                <mask id="mask-2" fill="white">
                    <use xlink:href="#path-1"></use>
                </mask>
                <use id="Rectangle-Copy" fill="#282828" fill-rule="nonzero" xlink:href="#path-1"></use>
                <g id="medal(1)" mask="url(#mask-2)">
                    <g transform="translate(11.000000, -11.000000)">
                        <path d="M0,47.316001 C-0.0134626569,59.9640209 10.0667,70.3854394 22.8831076,70.9740015 C35.6995153,71.561986 46.7183212,62.1086049 47.8971916,49.5143007 C49.0754762,36.9199963 39.9966503,25.6391271 27.2868801,23.9063634 C27.8517067,22.6720579 27.6384319,21.2275106 26.7413889,20.2028696 L35.2858559,16.4589449 C35.7194365,16.2689185 35.9989203,15.8455465 35.9989203,15.3777003 L35.9989203,1.18290003 C35.9989203,0.52964807 35.4616318,0 34.7989567,0 L13.1996127,0 C12.5369375,0 11.9996491,0.52964807 11.9996491,1.18290003 L11.9996491,15.3777003 C11.9996491,15.8455465 12.2791328,16.2689185 12.7121275,16.4589449 L21.2571805,20.2028696 C20.3595513,21.2275106 20.1468626,22.6720579 20.7111032,23.9063634 C8.85384613,25.5305404 0.0205206485,35.514725 0,47.316001 Z M19.1994305,16.7119285 L19.1994305,2.36580005 L28.7991389,2.36580005 L28.7991389,16.7119285 L23.9992847,18.8137707 L19.1994305,16.7119285 Z M33.5989932,14.610086 L31.199066,15.6601408 L31.199066,2.36580005 L33.5989932,2.36580005 L33.5989932,14.610086 Z M14.3995763,2.36580005 L16.7995034,2.36580005 L16.7995034,15.6601408 L14.3995763,14.610086 L14.3995763,2.36580005 Z M22.7993211,22.4751005 C22.7993211,21.8218485 23.3366095,21.2922005 23.9992847,21.2922005 C24.6619598,21.2922005 25.1992483,21.8218485 25.1992483,22.4751005 C25.1992483,23.1283524 24.6619598,23.6580005 23.9992847,23.6580005 C23.3366095,23.6580005 22.7993211,23.1283524 22.7993211,22.4751005 Z M23.9992847,26.0238006 C35.9280239,26.0238006 45.5986287,35.5568889 45.5986287,47.316001 C45.5986287,59.0751132 35.9280239,68.6082015 23.9992847,68.6082015 C12.0705454,68.6082015 2.39994068,59.0751132 2.39994068,47.316001 C2.41400276,35.5620871 12.0758186,26.0376627 23.9992847,26.0238006 Z M23.9992847,66.2424014 C34.6026736,66.2424014 43.1987016,57.7686093 43.1987016,47.316001 C43.1987016,36.8633928 34.6026736,28.3896006 23.9992847,28.3896006 C13.3958957,28.3896006 4.7998678,36.8633928 4.7998678,47.316001 C4.81217207,57.763411 13.4011691,66.2302721 23.9992847,66.2424014 Z M23.9992847,30.7554007 C33.2773231,30.7554007 40.7987745,38.1698965 40.7987745,47.316001 C40.7987745,56.4621055 33.2773231,63.8766014 23.9992847,63.8766014 C14.7212461,63.8766014 7.19979491,56.4621055 7.19979491,47.316001 C7.20975551,38.1739397 14.7253475,30.7652196 23.9992847,30.7554007 Z" id="Shape" fill="#D1D1D1" fill-rule="nonzero"></path>
                        <text id="2" fill="none" font-family=".AppleSystemUIFont" font-size="24" font-weight="normal" letter-spacing="0.2832659">
                            <tspan x="16.9501614" y="55" fill="#D1D1D1">2</tspan>
                        </text>
                    </g>
                </g>
            </g>
        </g>
    </g>
</svg>