<svg xmlns="http://www.w3.org/2000/svg" width="381.903" height="50.926" viewBox="0 0 381.903 50.926"><path d="M369.12,650.672a25.463,25.463,0,1,0,25.463,25.463A25.463,25.463,0,0,0,369.12,650.672Zm-1.294,20.389v21.485h-6.651V672.824h-8.87v-6.652h15.521Zm10.482,5.782v-4.019h-8.264v-6.652h8.264v-4.2l9.915,7.437Z" transform="translate(-343.657 -650.672)" fill="#f7981d"/><path d="M414.374,685.964h-5.318V665.01h-7.694v-4.5h20.707v4.5h-7.694Z" transform="translate(-326.64 -647.772)" fill="#333"/><path d="M442.164,660.506h12.87c6.772,0,8.013,5,8.013,7.2a6.08,6.08,0,0,1-3.935,6.064c2.093.922,3.227,1.7,3.227,6.452,0,3.723,0,4.645,1.134,5.071v.673h-5.885a16.958,16.958,0,0,1-.567-5.142c0-3.474-.214-4.821-4.149-4.821h-5.5v9.963h-5.212Zm11.452,11.2c2.766,0,4.113-.958,4.113-3.476,0-1.347-.6-3.332-3.723-3.332h-6.63v6.807Z" transform="translate(-314.608 -647.772)" fill="#333"/><path d="M488.474,685.964H483.51V664.69h-.071l-4.751,21.274h-5.211l-4.645-21.274h-.071v21.274H463.8V660.506h7.764l4.609,20.068h.071l4.539-20.068h7.693Z" transform="translate(-308.228 -647.772)" fill="#333"/><path d="M493.843,685.964h-5.318V660.506h5.318Z" transform="translate(-300.936 -647.772)" fill="#333"/><path d="M514.106,660.506h4.963v25.458h-5.318L503.363,667.81h-.07v18.153h-4.965V660.506h5.6l10.1,17.728h.071Z" transform="translate(-298.045 -647.772)" fill="#333"/><path d="M547.488,681.354h12.658v4.61H542.17V660.506h5.318Z" transform="translate(-285.117 -647.772)" fill="#333"/><path d="M575.941,681.354H588.6v4.61H570.622V660.506h5.319Z" transform="translate(-276.726 -647.772)" fill="#f7981d"/><path d="M594.4,685.964h-5.318V660.506H594.4Z" transform="translate(-271.283 -647.772)" fill="#f7981d"/><path d="M614.66,660.506h4.965v25.458h-5.319L603.918,667.81h-.071v18.153h-4.963V660.506h5.6l10.105,17.728h.07Z" transform="translate(-268.392 -647.772)" fill="#f7981d"/><path d="M626.519,685.964H621.2V660.506h5.318V670.86l9.714-10.354h6.878l-10.389,10.425,10.991,15.032h-6.842L629,674.8l-2.481,2.552Z" transform="translate(-261.811 -647.772)" fill="#f7981d"/><rect width="18.91" height="4.151" transform="translate(101.019 12.855)" fill="#333"/><rect width="18.91" height="4.151" transform="translate(101.019 23.463)" fill="#333"/><rect width="18.91" height="4.151" transform="translate(101.019 34.071)" fill="#333"/><path d="M534.022,660.506h-6.134l-9.077,25.457h5.6l1.258-3.724,2.729-8.378,2.466-7.611h.071l3.156,10.069h-2.3l-1.432,4.4h5.221l1.63,5.247h5.779Z" transform="translate(-292.005 -647.772)" fill="#333"/></svg>