<svg xmlns="http://www.w3.org/2000/svg" width="100.917" height="103.086" viewBox="0 0 100.917 103.086"><g transform="translate(1471.667 891.586) rotate(180)"><path d="M0,263.849a1.931,1.931,0,1,1,1.931,1.932A1.932,1.932,0,0,1,0,263.849" transform="translate(1467.805 625.805)" fill="#cdd4dd"/><path d="M37.417,263.849a1.931,1.931,0,1,1,1.931,1.932,1.932,1.932,0,0,1-1.931-1.932" transform="translate(1416.213 625.805)" fill="#cdd4dd"/><path d="M74.834,263.849a1.931,1.931,0,1,1,1.931,1.932,1.932,1.932,0,0,1-1.931-1.932" transform="translate(1364.621 625.805)" fill="#cdd4dd"/><path d="M112.251,263.849a1.931,1.931,0,1,1,1.931,1.932,1.932,1.932,0,0,1-1.931-1.932" transform="translate(1313.03 625.805)" fill="#cdd4dd"/><path d="M149.668,263.849a1.931,1.931,0,1,1,1.931,1.932,1.932,1.932,0,0,1-1.931-1.932" transform="translate(1261.438 625.805)" fill="#cdd4dd"/><path d="M187.085,263.849a1.931,1.931,0,1,1,1.931,1.932,1.932,1.932,0,0,1-1.931-1.932" transform="translate(1209.846 625.805)" fill="#cdd4dd"/><path d="M0,226.432a1.931,1.931,0,1,1,1.931,1.932A1.932,1.932,0,0,1,0,226.432" transform="translate(1467.805 649.047)" fill="#cdd4dd"/><path d="M37.417,226.432a1.931,1.931,0,1,1,1.931,1.932,1.932,1.932,0,0,1-1.931-1.932" transform="translate(1416.213 649.047)" fill="#cdd4dd"/><path d="M74.834,226.432a1.931,1.931,0,1,1,1.931,1.932,1.932,1.932,0,0,1-1.931-1.932" transform="translate(1364.621 649.047)" fill="#cdd4dd"/><path d="M112.251,226.432a1.931,1.931,0,1,1,1.931,1.932,1.932,1.932,0,0,1-1.931-1.932" transform="translate(1313.03 649.047)" fill="#cdd4dd"/><path d="M149.668,226.432a1.931,1.931,0,1,1,1.931,1.932,1.932,1.932,0,0,1-1.931-1.932" transform="translate(1261.438 649.047)" fill="#cdd4dd"/><path d="M187.085,226.432a1.931,1.931,0,1,1,1.931,1.932,1.932,1.932,0,0,1-1.931-1.932" transform="translate(1209.846 649.047)" fill="#cdd4dd"/><path d="M220.571,263.849a1.931,1.931,0,1,1,1.931,1.932,1.931,1.931,0,0,1-1.931-1.932" transform="translate(1163.675 625.805)" fill="#cdd4dd"/><path d="M256.2,263.849a1.931,1.931,0,1,1,1.931,1.932,1.932,1.932,0,0,1-1.931-1.932" transform="translate(1114.555 625.805)" fill="#cdd4dd"/><path d="M220.571,226.432a1.931,1.931,0,1,1,1.931,1.932,1.931,1.931,0,0,1-1.931-1.932" transform="translate(1163.675 649.047)" fill="#cdd4dd"/><path d="M0,189.015a1.931,1.931,0,1,1,1.931,1.932A1.932,1.932,0,0,1,0,189.015" transform="translate(1467.805 672.289)" fill="#cdd4dd"/><path d="M37.417,189.015a1.931,1.931,0,1,1,1.931,1.932,1.932,1.932,0,0,1-1.931-1.932" transform="translate(1416.213 672.289)" fill="#cdd4dd"/><path d="M74.834,189.015a1.931,1.931,0,1,1,1.931,1.932,1.932,1.932,0,0,1-1.931-1.932" transform="translate(1364.621 672.289)" fill="#cdd4dd"/><path d="M112.251,189.015a1.931,1.931,0,1,1,1.931,1.932,1.932,1.932,0,0,1-1.931-1.932" transform="translate(1313.03 672.289)" fill="#cdd4dd"/><path d="M149.668,189.015a1.931,1.931,0,1,1,1.931,1.932,1.932,1.932,0,0,1-1.931-1.932" transform="translate(1261.438 672.289)" fill="#cdd4dd"/><path d="M187.085,189.015a1.931,1.931,0,1,1,1.931,1.932,1.932,1.932,0,0,1-1.931-1.932" transform="translate(1209.846 672.289)" fill="#cdd4dd"/><path d="M0,151.6a1.931,1.931,0,1,1,1.931,1.932A1.932,1.932,0,0,1,0,151.6" transform="translate(1467.805 695.532)" fill="#cdd4dd"/><path d="M37.417,151.6a1.931,1.931,0,1,1,1.931,1.932,1.932,1.932,0,0,1-1.931-1.932" transform="translate(1416.213 695.532)" fill="#cdd4dd"/><path d="M74.834,151.6a1.931,1.931,0,1,1,1.931,1.932,1.932,1.932,0,0,1-1.931-1.932" transform="translate(1364.621 695.532)" fill="#cdd4dd"/><path d="M112.251,151.6a1.931,1.931,0,1,1,1.931,1.932,1.932,1.932,0,0,1-1.931-1.932" transform="translate(1313.03 695.532)" fill="#cdd4dd"/><path d="M149.668,151.6a1.931,1.931,0,1,1,1.931,1.932,1.932,1.932,0,0,1-1.931-1.932" transform="translate(1261.438 695.532)" fill="#cdd4dd"/><path d="M0,114.181a1.931,1.931,0,1,1,1.931,1.932A1.932,1.932,0,0,1,0,114.181" transform="translate(1467.805 718.774)" fill="#cdd4dd"/><path d="M37.417,114.181a1.931,1.931,0,1,1,1.931,1.932,1.932,1.932,0,0,1-1.931-1.932" transform="translate(1416.213 718.774)" fill="#cdd4dd"/><path d="M74.834,114.181a1.931,1.931,0,1,1,1.931,1.932,1.932,1.932,0,0,1-1.931-1.932" transform="translate(1364.621 718.774)" fill="#cdd4dd"/><path d="M112.251,114.181a1.931,1.931,0,1,1,1.931,1.932,1.932,1.932,0,0,1-1.931-1.932" transform="translate(1313.03 718.774)" fill="#cdd4dd"/><path d="M0,76.764A1.931,1.931,0,1,1,1.931,78.7,1.932,1.932,0,0,1,0,76.764" transform="translate(1467.805 742.016)" fill="#cdd4dd"/><path d="M37.417,76.764A1.931,1.931,0,1,1,39.348,78.7a1.932,1.932,0,0,1-1.931-1.932" transform="translate(1416.213 742.016)" fill="#cdd4dd"/><path d="M74.834,76.764A1.931,1.931,0,1,1,76.765,78.7a1.932,1.932,0,0,1-1.931-1.932" transform="translate(1364.621 742.016)" fill="#cdd4dd"/><path d="M0,39.347a1.931,1.931,0,1,1,1.931,1.932A1.932,1.932,0,0,1,0,39.347" transform="translate(1467.805 765.258)" fill="#cdd4dd"/><path d="M37.417,39.347a1.931,1.931,0,1,1,1.931,1.932,1.932,1.932,0,0,1-1.931-1.932" transform="translate(1416.213 765.258)" fill="#cdd4dd"/><path d="M0,1.931A1.931,1.931,0,1,1,1.931,3.863,1.931,1.931,0,0,1,0,1.931" transform="translate(1467.805 788.5)" fill="#cdd4dd"/></g></svg>