<svg xmlns="http://www.w3.org/2000/svg" width="34" height="34" viewBox="0 0 34 34"><g transform="translate(-848 -1673.5)"><circle cx="17" cy="17" r="17" transform="translate(848 1673.5)" fill="#fff"/><path d="M17,1A16,16,0,0,0,5.686,28.314,16,16,0,0,0,28.314,5.686,15.9,15.9,0,0,0,17,1m0-1A17,17,0,1,1,0,17,17,17,0,0,1,17,0Z" transform="translate(848 1673.5)" fill="#d9e1eb"/><g transform="translate(856 1682)"><path d="M2.182-.5A2.682,2.682,0,1,1-.5,2.182,2.685,2.685,0,0,1,2.182-.5Zm0,4.364A1.682,1.682,0,1,0,.5,2.182,1.684,1.684,0,0,0,2.182,3.864Z" transform="translate(6.818 6.818)" fill="#f5ae29"/><path d="M9.058,17.5A1.957,1.957,0,0,1,7.1,15.545v-.059a.7.7,0,0,0-.458-.635l-.029-.012a.7.7,0,0,0-.771.138l-.041.041a1.955,1.955,0,1,1-2.765-2.766l.041-.041a.7.7,0,0,0,.139-.771l0,0a.7.7,0,0,0-.641-.424H2.455a1.955,1.955,0,1,1,0-3.909h.059a.7.7,0,0,0,.635-.458l.012-.029a.7.7,0,0,0-.138-.771L2.981,5.8A1.955,1.955,0,1,1,5.746,3.039l.041.041a.7.7,0,0,0,.771.139.5.5,0,0,1,.135-.038.7.7,0,0,0,.352-.6V2.455a1.955,1.955,0,1,1,3.909,0V2.52a.7.7,0,0,0,.424.639l0,0a.7.7,0,0,0,.771-.138l.041-.041a1.955,1.955,0,1,1,2.765,2.766l-.041.041a.7.7,0,0,0-.139.771.5.5,0,0,1,.038.135.7.7,0,0,0,.6.352h.122a1.955,1.955,0,0,1,0,3.909H15.48a.7.7,0,0,0-.639.424l0,0a.7.7,0,0,0,.138.771l.041.041a1.955,1.955,0,1,1-2.766,2.765l-.041-.041a.7.7,0,0,0-.771-.139l0,0a.7.7,0,0,0-.424.641v.122A1.957,1.957,0,0,1,9.058,17.5ZM7.005,13.918a1.69,1.69,0,0,1,1.1,1.55s0,.008,0,.012v.065a.955.955,0,1,0,1.909,0v-.124a1.708,1.708,0,0,1,2.9-1.216l0,0,.044.044A.955.955,0,1,0,14.312,12.9l-.044-.044,0,0a1.71,1.71,0,0,1,1.214-2.9h.067a.955.955,0,1,0,0-1.909h-.124a1.7,1.7,0,0,1-1.558-1.03.5.5,0,0,1-.039-.154,1.691,1.691,0,0,1,.381-1.775l0,0,.044-.044A.955.955,0,1,0,12.9,3.688l-.044.044,0,0a1.71,1.71,0,0,1-2.9-1.214V2.455a.955.955,0,1,0-1.909,0v.124a1.7,1.7,0,0,1-1.03,1.558.5.5,0,0,1-.154.039,1.7,1.7,0,0,1-1.774-.381l0,0-.044-.044A.955.955,0,1,0,3.688,5.1l.044.044,0,0a1.692,1.692,0,0,1,.346,1.861,1.69,1.69,0,0,1-1.55,1.1H2.455a.955.955,0,1,0,0,1.909h.124a1.71,1.71,0,0,1,1.216,2.9l0,0-.044.044A.955.955,0,1,0,5.1,14.312l.044-.044,0,0a1.7,1.7,0,0,1,1.861-.346Z" fill="#f5ae29"/></g></g></svg>