<svg xmlns="http://www.w3.org/2000/svg" width="34" height="34" viewBox="0 0 34 34"><g transform="translate(-883 -2303.5)"><circle cx="17" cy="17" r="17" transform="translate(883 2303.5)" fill="#fff"/><path d="M17,1A16,16,0,0,0,5.686,28.314,16,16,0,0,0,28.314,5.686,15.9,15.9,0,0,0,17,1m0-1A17,17,0,1,1,0,17,17,17,0,0,1,17,0Z" transform="translate(883 2303.5)" fill="#d9e1eb"/><path d="M73.267,28a.267.267,0,0,1-.246-.37l2.988-7.1H73.267a.267.267,0,0,1-.239-.386l4-8A.267.267,0,0,1,77.267,12h4.267a.267.267,0,0,1,.225.409L78.64,17.333H81.8a.267.267,0,0,1,.2.439L73.471,27.905a.267.267,0,0,1-.2.095" transform="translate(823.467 2301.5)" fill="rgba(0,0,0,0)"/><path d="M73.267,28.5a.767.767,0,0,1-.707-1.064l2.7-6.4H73.267a.767.767,0,0,1-.686-1.11l4-8a.763.763,0,0,1,.686-.424h4.267a.767.767,0,0,1,.648,1.177l-2.633,4.157H81.8a.767.767,0,0,1,.587,1.261L73.853,28.227A.767.767,0,0,1,73.267,28.5Zm.378-8.467h2.365a.5.5,0,0,1,.461.694l-2.392,5.681L81.3,17.833H78.64a.5.5,0,0,1-.422-.768L81.11,12.5h-3.7Z" transform="translate(823.467 2301.5)" fill="#f5ae29"/></g></svg>