<svg xmlns="http://www.w3.org/2000/svg" width="34" height="34" viewBox="0 0 34 34"><g transform="translate(-862 -1760.5)"><circle cx="17" cy="17" r="17" transform="translate(862 1760.5)" fill="#fff"/><path d="M17,1A16,16,0,0,0,5.686,28.314,16,16,0,0,0,28.314,5.686,15.9,15.9,0,0,0,17,1m0-1A17,17,0,1,1,0,17,17,17,0,0,1,17,0Z" transform="translate(862 1760.5)" fill="#d9e1eb"/><path d="M5,3l11.667,7.5L5,18Z" transform="translate(870.333 1767)" fill="rgba(0,0,0,0)"/><path d="M5,2.5a.5.5,0,0,1,.27.079l11.667,7.5a.5.5,0,0,1,0,.841L5.27,18.421A.5.5,0,0,1,4.5,18V3A.5.5,0,0,1,5,2.5Zm10.742,8L5.5,3.916V17.084Z" transform="translate(870.333 1767)" fill="#f5ae29"/></g></svg>