<svg xmlns="http://www.w3.org/2000/svg" width="34" height="34" viewBox="0 0 34 34"><g transform="translate(-883 -1256.5)"><g transform="translate(35 -417)"><circle cx="17" cy="17" r="17" transform="translate(848 1673.5)" fill="#fff"/><path d="M17,1A16,16,0,0,0,5.686,28.314,16,16,0,0,0,28.314,5.686,15.9,15.9,0,0,0,17,1m0-1A17,17,0,1,1,0,17,17,17,0,0,1,17,0Z" transform="translate(848 1673.5)" fill="#d9e1eb"/></g><g transform="translate(888.857 1264.953)"><path d="M17.3,2.074,13.6.365a1.157,1.157,0,0,0-1.278.208L.184,11.168a.7.7,0,0,0,0,1.062l.991.863a.775.775,0,0,0,.957.041L16.745,2.518a.747.747,0,0,1,1.194.568V3.044A1.074,1.074,0,0,0,17.3,2.074Z" transform="translate(0 -0.001)" fill="#0065a9"/><g transform="translate(-0.061 5.133)"><path d="M17.3,35.368,13.6,37.077a1.157,1.157,0,0,1-1.278-.208L.184,26.274a.7.7,0,0,1,0-1.062l.991-.863a.775.775,0,0,1,.957-.041L16.745,34.925a.747.747,0,0,0,1.194-.568V34.4A1.074,1.074,0,0,1,17.3,35.368Z" transform="translate(0.061 -24.162)" fill="#007acc"/></g><g transform="translate(11.566 0.258)"><path d="M70.2,18.043a1.4,1.4,0,0,1-1.45-.218.763.763,0,0,0,1.275-.466V1.052A.763.763,0,0,0,68.75.586,1.4,1.4,0,0,1,70.2.369l4.2,1.782a1.122,1.122,0,0,1,.722,1.013V15.248a1.122,1.122,0,0,1-.722,1.013Z" transform="translate(-68.75 -0.258)" fill="#1f9cf0"/></g><g transform="translate(-0.061 0.258)" opacity="0.25" style="mix-blend-mode:overlay;isolation:isolate"><path d="M12.695,18.078a1.119,1.119,0,0,0,.892-.034l3.7-1.782a1.124,1.124,0,0,0,.637-1.013V3.164a1.124,1.124,0,0,0-.637-1.013L13.587.369a1.119,1.119,0,0,0-1.278.218L5.219,7.055,2.131,4.71a.749.749,0,0,0-.957.043l-.99.9a.75.75,0,0,0,0,1.109L2.862,9.206.184,11.649a.75.75,0,0,0,0,1.108l.99.9a.749.749,0,0,0,.957.043l3.088-2.344,7.09,6.469A1.118,1.118,0,0,0,12.695,18.078Zm.738-12.955L8.053,9.206l5.379,4.084Z" transform="translate(0.061 -0.258)" fill="#fff" fill-rule="evenodd"/></g></g></g></svg>